<svg width="100" height="100" viewBox="0 0 100 100" fill="none" xmlns="http://www.w3.org/2000/svg">
<path d="M91.6667 0H21.6667C17.0662 0.00569663 13.339 3.73291 13.3333 8.33333V73.3333H1.66667C0.746256 73.3333 0 74.0796 0 75V78.3333C0.00569662 82.9338 3.73291 86.661 8.33333 86.6667H60.0399V95C60.0399 95.6315 60.3963 96.2085 60.9611 96.4909C61.5259 96.7733 62.2013 96.7122 62.7067 96.333L68.3732 92.0833L74.0397 96.333C74.3278 96.5503 74.6794 96.6675 75.0399 96.6667C75.2987 96.6691 75.5542 96.6121 75.7869 96.4998C76.3542 96.2158 76.7106 95.634 76.7065 95V86.6667H78.3333C82.9338 86.661 86.661 82.9338 86.6667 78.3333V13.3333H98.3333C99.2537 13.3333 100 12.5871 100 11.6667V8.33333C99.9943 3.73291 96.2671 0.00569663 91.6667 0ZM60.0399 83.3333H8.33333C5.5721 83.3333 3.33333 81.0946 3.33333 78.3333V76.6667H60.0399V83.3333ZM73.3732 91.6667L69.3734 88.667C68.7809 88.2218 67.9663 88.2218 67.373 88.667L63.3732 91.6667V73.0518C63.6955 73.077 64.0194 73.0713 64.34 73.033C65.3019 74.2741 66.7839 75 68.3537 75C69.9235 75 71.4046 74.2741 72.3665 73.033C72.6986 73.0729 73.0339 73.0794 73.3667 73.0518L73.3732 91.6667ZM75.5168 64.9666C75.0724 65.1245 74.7152 65.4639 74.5353 65.8993C74.3547 66.3354 74.3669 66.827 74.5703 67.2534C74.8853 67.9142 74.7518 68.702 74.2358 69.2212C73.7191 69.7404 72.9321 69.8787 72.2697 69.5671C71.8441 69.3636 71.3517 69.3506 70.9155 69.5304C70.4785 69.7111 70.14 70.0684 69.9813 70.5135C69.738 71.2036 69.0853 71.6659 68.3537 71.6659C67.6213 71.6659 66.9686 71.2036 66.7253 70.5135C66.5674 70.0684 66.228 69.7111 65.7918 69.5304C65.3548 69.3506 64.8625 69.3636 64.4368 69.5671C63.7744 69.8787 62.9875 69.7404 62.4715 69.2212C61.9548 68.702 61.8213 67.9142 62.137 67.2534C62.3397 66.8278 62.3527 66.3354 62.172 65.9001C61.9922 65.4639 61.6357 65.1253 61.1914 64.9666C60.5005 64.7209 60.0382 64.0666 60.0382 63.3333C60.0382 62.6001 60.5005 61.9458 61.1914 61.7C61.6357 61.5413 61.9914 61.2028 62.1712 60.7674C62.3519 60.332 62.3389 59.8405 62.137 59.4149C61.8197 58.7541 61.9531 57.9655 62.4699 57.4455C62.9858 56.9263 63.7736 56.7871 64.4368 57.0996C64.8625 57.3031 65.3548 57.3161 65.7918 57.1362C66.228 56.9556 66.5674 56.5983 66.7253 56.1532C66.9686 55.4631 67.6213 55.0008 68.3537 55.0008C69.0853 55.0008 69.738 55.4631 69.9813 56.1532C70.14 56.5983 70.4785 56.9556 70.9155 57.1362C71.3517 57.3161 71.8441 57.3031 72.2697 57.0996C72.9321 56.7879 73.7191 56.9263 74.2358 57.4455C74.7518 57.9647 74.8853 58.7524 74.5703 59.4132C74.3669 59.8397 74.3547 60.3312 74.5353 60.7674C74.7152 61.2028 75.0724 61.5422 75.5168 61.7C76.2061 61.9474 76.6667 62.6009 76.6667 63.3333C76.6667 64.0658 76.2061 64.7192 75.5168 64.9666ZM84.8714 3.54167C84.777 3.67513 84.6932 3.81673 84.6069 3.95671C84.4287 4.24154 84.2692 4.53613 84.1268 4.83968C84.0519 5.00651 83.9819 5.16032 83.9168 5.32308C83.7931 5.65023 83.689 5.98389 83.6068 6.32324C83.5685 6.47868 83.5197 6.62842 83.4904 6.7863C83.3895 7.29655 83.3374 7.81413 83.3333 8.33333V78.3333C83.3333 81.0946 81.0946 83.3333 78.3333 83.3333C77.7775 83.3228 77.2282 83.2194 76.7065 83.0265V71.4331C77.7433 70.3426 78.2324 68.8428 78.0404 67.3503C79.279 66.3859 80.0033 64.9032 80.0033 63.3333C80.0033 61.7635 79.279 60.2808 78.0404 59.3164C78.2373 57.7604 77.7043 56.2004 76.5967 55.0887C75.4891 53.9779 73.9307 53.4408 72.373 53.6336C71.4111 52.3926 69.93 51.6667 68.3602 51.6667C66.7904 51.6667 65.3084 52.3926 64.3465 53.6336C62.7897 53.4416 61.2313 53.9787 60.1237 55.0895C59.0169 56.2004 58.4839 57.7604 58.68 59.3164C57.4414 60.2808 56.7163 61.7635 56.7163 63.3333C56.7163 64.9032 57.4414 66.3859 58.68 67.3503C58.4831 68.8639 58.9876 70.3849 60.0496 71.4819V73.3333H16.6667V8.33333C16.6667 5.5721 18.9054 3.33333 21.6667 3.33333H85C84.9536 3.39844 84.9186 3.47331 84.8714 3.54167ZM96.6667 10H86.6667V8.33333C86.6667 5.5721 88.9054 3.33333 91.6667 3.33333C94.4279 3.33333 96.6667 5.5721 96.6667 8.33333V10Z" fill="#ED8400"/>
<path d="M55 13.3333H61.6667V16.6666H55V13.3333Z" fill="#ED8400"/>
<path d="M38.3335 13.3333H51.6668V16.6666H38.3335V13.3333Z" fill="#ED8400"/>
<path d="M33.3335 21.6667H66.6668V25H33.3335V21.6667Z" fill="#ED8400"/>
<path d="M25 31.6667H33.3333V35H25V31.6667Z" fill="#ED8400"/>
<path d="M25 40H43.3333V43.3333H25V40Z" fill="#ED8400"/>
<path d="M36.6665 31.6667H74.9998V35H36.6665V31.6667Z" fill="#ED8400"/>
<path d="M46.6665 40H74.9998V43.3333H46.6665V40Z" fill="#ED8400"/>
<path d="M25 48.3333H58.3333V51.6666H25V48.3333Z" fill="#ED8400"/>
<path d="M25 56.6667H53.3333V60H25V56.6667Z" fill="#ED8400"/>
</svg>
