<svg width="100" height="100" viewBox="0 0 100 100" fill="none" xmlns="http://www.w3.org/2000/svg">
<path d="M76.7718 81.7742C77.1345 81.4819 77.3671 81.0342 77.3671 80.5319C77.3671 80.5179 77.3671 7.97872 77.3671 7.97872C77.3671 7.09723 76.6528 6.38298 75.7713 6.38298H29.6043C28.4658 2.69085 25.0222 0 20.9615 0C16.9662 0 13.4703 2.66255 12.3203 6.38298H7.20707C6.32558 6.38298 5.61133 7.09723 5.61133 7.97872V98.4043C5.61133 99.2857 6.32558 100 7.20707 100H57.8852C58.4011 100 58.8484 99.7677 59.1409 99.4055L76.7718 81.7742ZM59.4947 94.5379V82.1277H71.9047L59.4947 94.5379ZM20.9615 3.19149C23.2303 3.19149 25.2003 4.49043 26.1705 6.38298H15.7522C16.7318 4.47915 18.7256 3.19149 20.9615 3.19149ZM8.80282 9.57447H26.8126V20.7447C26.8126 22.2113 25.6196 23.4043 24.153 23.4043C22.6864 23.4043 21.4935 22.2113 21.4935 20.7447V14.3617C21.4935 13.4802 20.7792 12.766 19.8977 12.766C19.0162 12.766 18.302 13.4802 18.302 14.3617V20.7447C18.302 23.9708 20.9269 26.5957 24.153 26.5957C27.3792 26.5957 30.0041 23.9708 30.0041 20.7447V9.57447H74.1756V78.9362H57.899C57.0175 78.9362 56.3032 79.6504 56.3032 80.5319V96.8085H8.80282V9.57447Z" fill="#ED8400"/>
<path d="M63.0055 73.5106C63.887 73.5106 64.6013 72.7964 64.6013 71.9149C64.6013 71.0334 63.887 70.3192 63.0055 70.3192H19.9732C19.0917 70.3192 18.3774 71.0334 18.3774 71.9149C18.3774 72.7964 19.0917 73.5106 19.9732 73.5106H63.0055Z" fill="#ED8400"/>
<path d="M19.9732 63.9362H63.0055C63.887 63.9362 64.6013 63.2219 64.6013 62.3404C64.6013 61.4589 63.887 60.7447 63.0055 60.7447H19.9732C19.0917 60.7447 18.3774 61.4589 18.3774 62.3404C18.3774 63.2219 19.0917 63.9362 19.9732 63.9362Z" fill="#ED8400"/>
<path d="M19.9732 54.3617H63.0055C63.887 54.3617 64.6013 53.6475 64.6013 52.766C64.6013 51.8845 63.887 51.1702 63.0055 51.1702H19.9732C19.0917 51.1702 18.3774 51.8845 18.3774 52.766C18.3774 53.6475 19.0917 54.3617 19.9732 54.3617Z" fill="#ED8400"/>
<path d="M19.9732 44.7873H63.0055C63.887 44.7873 64.6013 44.073 64.6013 43.1915C64.6013 42.31 63.887 41.5958 63.0055 41.5958H19.9732C19.0917 41.5958 18.3774 42.31 18.3774 43.1915C18.3774 44.073 19.0917 44.7873 19.9732 44.7873Z" fill="#ED8400"/>
<path d="M19.9732 35.2128H63.0055C63.887 35.2128 64.6013 34.4985 64.6013 33.617C64.6013 32.7356 63.887 32.0213 63.0055 32.0213H19.9732C19.0917 32.0213 18.3774 32.7356 18.3774 33.617C18.3774 34.4985 19.0917 35.2128 19.9732 35.2128Z" fill="#ED8400"/>
<path d="M84.2818 6.383H82.1541C81.2727 6.383 80.5584 7.09725 80.5584 7.97874C80.5584 8.86023 81.2727 9.57448 82.1541 9.57448H82.6861V96.8085H65.6495C64.768 96.8085 64.0537 97.5228 64.0537 98.4043C64.0537 99.2858 64.768 100 65.6495 100H84.2818C85.1633 100 85.8775 99.2858 85.8775 98.4043V7.97874C85.8775 7.09725 85.1633 6.383 84.2818 6.383Z" fill="#ED8400"/>
<path d="M92.7927 6.383H90.6651C89.7836 6.383 89.0693 7.09725 89.0693 7.97874C89.0693 8.86023 89.7836 9.57448 90.6651 9.57448H91.197V96.8085H90.6651C89.7836 96.8085 89.0693 97.5228 89.0693 98.4043C89.0693 99.2858 89.7836 100 90.6651 100H92.7927C93.6742 100 94.3885 99.2858 94.3885 98.4043V7.97874C94.3885 7.09725 93.6742 6.383 92.7927 6.383Z" fill="#ED8400"/>
</svg>
