<svg width="100" height="100" viewBox="0 0 100 100" fill="none" xmlns="http://www.w3.org/2000/svg">
<path d="M96.3944 86.4844L93.3084 74.8836C93.2387 74.6224 93.0932 74.3876 92.8902 74.209C92.6871 74.0305 92.4357 73.9161 92.1677 73.8803C91.8997 73.8445 91.6271 73.889 91.3843 74.008C91.1416 74.1271 90.9395 74.3154 90.8038 74.5492L87.2303 80.7141L78.2975 75.4797V45.0961C78.2958 45.0227 78.2885 44.9496 78.2756 44.8773C78.286 44.8221 78.2933 44.7663 78.2975 44.7102C78.2978 44.4715 78.2354 44.237 78.1167 44.03C77.998 43.823 77.8271 43.6507 77.6209 43.5305L51.367 28.15V17.818H58.4881C58.7585 17.8177 59.0226 17.7373 59.2473 17.5869C59.4719 17.4365 59.6469 17.2229 59.7502 16.973C59.8534 16.7232 59.8803 16.4483 59.8274 16.1832C59.7745 15.9181 59.6442 15.6747 59.453 15.4836L50.9663 6.99531C50.7099 6.73913 50.3623 6.59521 49.9999 6.59521C49.6374 6.59521 49.2898 6.73913 49.0334 6.99531L40.5467 15.4836C40.3554 15.6748 40.2251 15.9184 40.1722 16.1836C40.1194 16.4489 40.1464 16.7238 40.2498 16.9737C40.3533 17.2236 40.5285 17.4372 40.7534 17.5875C40.9783 17.7378 41.2427 17.818 41.5131 17.818H48.6327V28.15L22.3788 43.5305C22.1728 43.6509 22.002 43.8232 21.8833 44.0302C21.7646 44.2371 21.7022 44.4716 21.7022 44.7102C21.7062 44.7663 21.7138 44.8222 21.7249 44.8773C21.7113 44.9495 21.7037 45.0227 21.7022 45.0961V75.4781L12.7702 80.7125L9.19594 74.5469C9.06015 74.3131 8.85812 74.1247 8.61535 74.0057C8.37259 73.8866 8.09999 73.8422 7.83198 73.8779C7.56397 73.9137 7.31257 74.0281 7.10954 74.2067C6.90651 74.3853 6.76096 74.62 6.69126 74.8813L3.60532 86.4844C3.51233 86.835 3.56229 87.2081 3.74423 87.5219C3.92616 87.8356 4.22518 88.0644 4.57563 88.1578L16.1772 91.2438C16.4385 91.3131 16.7144 91.3034 16.9702 91.216C17.226 91.1285 17.4501 90.9672 17.6143 90.7524C17.7784 90.5376 17.8752 90.279 17.8924 90.0092C17.9095 89.7394 17.8463 89.4706 17.7108 89.2367L14.1405 83.0766L23.0686 77.8461L49.3077 93.2172C49.3233 93.2266 49.3413 93.2297 49.3569 93.2383C49.4318 93.2782 49.5103 93.3111 49.5913 93.3367C49.6186 93.3453 49.6452 93.3555 49.6733 93.3625C49.8856 93.4198 50.1094 93.4198 50.3217 93.3625C50.3499 93.3555 50.3764 93.3453 50.3998 93.3367C50.4808 93.3111 50.5593 93.2782 50.6342 93.2383C50.6498 93.2297 50.6678 93.2266 50.6834 93.2172L76.9303 77.8461L85.8584 83.0805L82.2889 89.2375C82.1684 89.4453 82.1047 89.6812 82.1044 89.9215C82.104 90.1617 82.167 90.3978 82.2869 90.6059C82.4068 90.8141 82.5795 90.987 82.7875 91.1072C82.9955 91.2274 83.2315 91.2907 83.4717 91.2906C83.5904 91.2903 83.7085 91.2748 83.8233 91.2445L95.4249 88.1586C95.7753 88.065 96.0743 87.8361 96.2561 87.5221C96.4379 87.2082 96.4876 86.835 96.3944 86.4844ZM49.9999 9.89531L55.1881 15.0836H44.8116L49.9999 9.89531ZM6.59985 85.8641L8.48579 78.7742L13.6897 87.75L6.59985 85.8641ZM49.9999 30.518L74.2256 44.7102L49.9999 58.9016L25.7749 44.7102L49.9999 30.518ZM24.4366 47.0953L48.6327 61.2695V89.6524L24.4366 75.4781V47.0953ZM51.367 89.6524V61.2695L75.5631 47.0953V75.4781L51.367 89.6524ZM86.31 87.75L91.5139 78.7742L93.4006 85.8641L86.31 87.75Z" fill="#ED8400"/>
</svg>
