<svg width="100" height="100" viewBox="0 0 100 100" fill="none" xmlns="http://www.w3.org/2000/svg">
<path d="M96.875 76.5625H93.75V53.125C93.75 52.7106 93.5854 52.3132 93.2924 52.0201C92.9993 51.7271 92.6019 51.5625 92.1875 51.5625H79.6875V28.125C79.6875 27.7106 79.5229 27.3132 79.2299 27.0201C78.9368 26.7271 78.5394 26.5625 78.125 26.5625H21.875C21.4606 26.5625 21.0632 26.7271 20.7701 27.0201C20.4771 27.3132 20.3125 27.7106 20.3125 28.125V51.5625H7.8125C7.3981 51.5625 7.00067 51.7271 6.70765 52.0201C6.41462 52.3132 6.25 52.7106 6.25 53.125V76.5625H3.125C2.7106 76.5625 2.31317 76.7271 2.02015 77.0201C1.72712 77.3132 1.5625 77.7106 1.5625 78.125V84.375C1.5625 84.7894 1.72712 85.1868 2.02015 85.4799C2.31317 85.7729 2.7106 85.9375 3.125 85.9375H7.8125V89.0625H3.125C2.7106 89.0625 2.31317 89.2271 2.02015 89.5201C1.72712 89.8132 1.5625 90.2106 1.5625 90.625V96.875C1.5625 97.2894 1.72712 97.6868 2.02015 97.9799C2.31317 98.2729 2.7106 98.4375 3.125 98.4375H96.875C97.2894 98.4375 97.6868 98.2729 97.9799 97.9799C98.2729 97.6868 98.4375 97.2894 98.4375 96.875V90.625C98.4375 90.2106 98.2729 89.8132 97.9799 89.5201C97.6868 89.2271 97.2894 89.0625 96.875 89.0625H92.1875V85.9375H96.875C97.2894 85.9375 97.6868 85.7729 97.9799 85.4799C98.2729 85.1868 98.4375 84.7894 98.4375 84.375V78.125C98.4375 77.7106 98.2729 77.3132 97.9799 77.0201C97.6868 76.7271 97.2894 76.5625 96.875 76.5625ZM90.625 76.5625H65.625V54.6875H73.4375V62.5C73.4375 62.9144 73.6021 63.3118 73.8951 63.6049C74.1882 63.8979 74.5856 64.0625 75 64.0625H81.25C81.6644 64.0625 82.0618 63.8979 82.3549 63.6049C82.6479 63.3118 82.8125 62.9144 82.8125 62.5V54.6875H90.625V76.5625ZM45.3125 54.6875V62.5C45.3125 62.9144 45.4771 63.3118 45.7701 63.6049C46.0632 63.8979 46.4606 64.0625 46.875 64.0625H53.125C53.5394 64.0625 53.9368 63.8979 54.2299 63.6049C54.5229 63.3118 54.6875 62.9144 54.6875 62.5V54.6875H62.5V76.5625H37.5V54.6875H45.3125ZM48.4375 54.6875H51.5625V60.9375H48.4375V54.6875ZM76.5625 54.6875H79.6875V60.9375H76.5625V54.6875ZM76.5625 51.5625H51.5625V29.6875H59.375V37.5C59.375 37.9144 59.5396 38.3118 59.8326 38.6049C60.1257 38.8979 60.5231 39.0625 60.9375 39.0625H67.1875C67.6019 39.0625 67.9993 38.8979 68.2924 38.6049C68.5854 38.3118 68.75 37.9144 68.75 37.5V29.6875H76.5625V51.5625ZM62.5 29.6875H65.625V35.9375H62.5V29.6875ZM34.375 29.6875H37.5V35.9375H34.375V29.6875ZM23.4375 29.6875H31.25V37.5C31.25 37.9144 31.4146 38.3118 31.7076 38.6049C32.0007 38.8979 32.3981 39.0625 32.8125 39.0625H39.0625C39.4769 39.0625 39.8743 38.8979 40.1674 38.6049C40.4604 38.3118 40.625 37.9144 40.625 37.5V29.6875H48.4375V51.5625H23.4375V29.6875ZM20.3125 54.6875H23.4375V60.9375H20.3125V54.6875ZM9.375 54.6875H17.1875V62.5C17.1875 62.9144 17.3521 63.3118 17.6451 63.6049C17.9382 63.8979 18.3356 64.0625 18.75 64.0625H25C25.4144 64.0625 25.8118 63.8979 26.1049 63.6049C26.3979 63.3118 26.5625 62.9144 26.5625 62.5V54.6875H34.375V76.5625H9.375V54.6875ZM10.9375 85.9375H14.0625V89.0625H10.9375V85.9375ZM54.6875 89.0625V85.9375H82.8125V89.0625H54.6875ZM51.5625 89.0625H48.4375V85.9375H51.5625V89.0625ZM45.3125 89.0625H17.1875V85.9375H45.3125V89.0625ZM95.3125 95.3125H4.6875V92.1875H95.3125V95.3125ZM89.0625 89.0625H85.9375V85.9375H89.0625V89.0625ZM95.3125 82.8125H4.6875V79.6875H95.3125V82.8125Z" fill="#ED8400"/>
<path d="M53.125 70.3125H56.25V75H53.125V70.3125Z" fill="#ED8400"/>
<path d="M57.8125 70.3125H60.9375V75H57.8125V70.3125Z" fill="#ED8400"/>
<path d="M67.1875 45.3125H70.3125V50H67.1875V45.3125Z" fill="#ED8400"/>
<path d="M71.875 45.3125H75V50H71.875V45.3125Z" fill="#ED8400"/>
<path d="M81.25 70.3125H84.375V75H81.25V70.3125Z" fill="#ED8400"/>
<path d="M85.9375 70.3125H89.0625V75H85.9375V70.3125Z" fill="#ED8400"/>
<path d="M25 70.3125H28.125V75H25V70.3125Z" fill="#ED8400"/>
<path d="M29.6875 70.3125H32.8125V75H29.6875V70.3125Z" fill="#ED8400"/>
<path d="M39.0625 45.3125H42.1875V50H39.0625V45.3125Z" fill="#ED8400"/>
<path d="M43.75 45.3125H46.875V50H43.75V45.3125Z" fill="#ED8400"/>
<path d="M48.8955 21.4172C49.1885 21.7101 49.5858 21.8747 50.0002 21.8747C50.4145 21.8747 50.8118 21.7101 51.1048 21.4172L58.9173 13.6047C59.1358 13.3862 59.2846 13.1078 59.3448 12.8047C59.4051 12.5017 59.3741 12.1876 59.2559 11.9021C59.1377 11.6166 58.9374 11.3726 58.6806 11.2009C58.4237 11.0292 58.1216 10.9376 57.8127 10.9375H54.6877V3.125C54.6877 2.7106 54.523 2.31317 54.23 2.02015C53.937 1.72712 53.5396 1.5625 53.1252 1.5625H46.8752C46.4608 1.5625 46.0633 1.72712 45.7703 2.02015C45.4773 2.31317 45.3127 2.7106 45.3127 3.125V10.9375H42.1877C41.8787 10.9376 41.5766 11.0292 41.3198 11.2009C41.0629 11.3726 40.8626 11.6166 40.7444 11.9021C40.6262 12.1876 40.5952 12.5017 40.6555 12.8047C40.7158 13.1078 40.8645 13.3862 41.083 13.6047L48.8955 21.4172ZM46.8752 14.0625C47.2896 14.0625 47.687 13.8979 47.98 13.6049C48.273 13.3118 48.4377 12.9144 48.4377 12.5V4.6875H51.5627V12.5C51.5627 12.9144 51.7273 13.3118 52.0203 13.6049C52.3133 13.8979 52.7108 14.0625 53.1252 14.0625H54.0408L50.0002 18.1031L45.9595 14.0625H46.8752Z" fill="#ED8400"/>
<path d="M87.958 30.7922C88.251 31.0851 88.6483 31.2497 89.0627 31.2497C89.477 31.2497 89.8743 31.0851 90.1673 30.7922L97.9798 22.9797C98.1983 22.7612 98.3471 22.4828 98.4073 22.1797C98.4676 21.8767 98.4366 21.5626 98.3184 21.2771C98.2002 20.9916 98 20.7476 97.7431 20.5759C97.4862 20.4042 97.1841 20.3126 96.8752 20.3125H93.7502V12.5C93.7502 12.0856 93.5855 11.6882 93.2925 11.3951C92.9995 11.1021 92.6021 10.9375 92.1877 10.9375H85.9377C85.5233 10.9375 85.1258 11.1021 84.8328 11.3951C84.5398 11.6882 84.3752 12.0856 84.3752 12.5V20.3125H81.2502C80.9412 20.3126 80.6391 20.4042 80.3823 20.5759C80.1254 20.7476 79.9251 20.9916 79.8069 21.2771C79.6887 21.5626 79.6577 21.8767 79.718 22.1797C79.7783 22.4828 79.927 22.7612 80.1455 22.9797L87.958 30.7922ZM85.9377 23.4375C86.3521 23.4375 86.7495 23.2729 87.0425 22.9799C87.3355 22.6868 87.5002 22.2894 87.5002 21.875V14.0625H90.6252V21.875C90.6252 22.2894 90.7898 22.6868 91.0828 22.9799C91.3758 23.2729 91.7733 23.4375 92.1877 23.4375H93.1033L89.0627 27.4781L85.022 23.4375H85.9377Z" fill="#ED8400"/>
<path d="M9.83297 30.7922C10.126 31.0851 10.5233 31.2497 10.9377 31.2497C11.352 31.2497 11.7493 31.0851 12.0423 30.7922L19.8548 22.9797C20.0733 22.7612 20.2221 22.4828 20.2823 22.1797C20.3426 21.8767 20.3116 21.5626 20.1934 21.2771C20.0752 20.9916 19.875 20.7476 19.6181 20.5759C19.3612 20.4042 19.0591 20.3126 18.7502 20.3125H15.6252V12.5C15.6252 12.0856 15.4605 11.6882 15.1675 11.3951C14.8745 11.1021 14.4771 10.9375 14.0627 10.9375H7.81266C7.39825 10.9375 7.00083 11.1021 6.7078 11.3951C6.41478 11.6882 6.25016 12.0856 6.25016 12.5V20.3125H3.12516C2.81617 20.3126 2.51414 20.4042 2.25725 20.5759C2.00036 20.7476 1.80014 20.9916 1.68191 21.2771C1.56367 21.5626 1.53273 21.8767 1.59299 22.1797C1.65326 22.4828 1.80202 22.7612 2.02047 22.9797L9.83297 30.7922ZM7.81266 23.4375C8.22706 23.4375 8.62448 23.2729 8.91751 22.9799C9.21054 22.6868 9.37516 22.2894 9.37516 21.875V14.0625H12.5002V21.875C12.5002 22.2894 12.6648 22.6868 12.9578 22.9799C13.2508 23.2729 13.6483 23.4375 14.0627 23.4375H14.9783L10.9377 27.4781L6.89703 23.4375H7.81266Z" fill="#ED8400"/>
<path d="M6.25 1.5625H9.375V9.375H6.25V1.5625Z" fill="#ED8400"/>
<path d="M12.5 4.6875H15.625V9.375H12.5V4.6875Z" fill="#ED8400"/>
<path d="M90.625 1.5625H93.75V9.375H90.625V1.5625Z" fill="#ED8400"/>
<path d="M84.375 4.6875H87.5V9.375H84.375V4.6875Z" fill="#ED8400"/>
</svg>
