<svg width="100" height="100" viewBox="0 0 100 100" fill="none" xmlns="http://www.w3.org/2000/svg">
<g clip-path="url(#clip0_27_927)">
<path d="M46.774 88.7098C47.6648 88.7098 48.3869 87.9877 48.3869 87.0969C48.3869 86.2061 47.6648 85.484 46.774 85.484C45.8832 85.484 45.1611 86.2061 45.1611 87.0969C45.1611 87.9877 45.8832 88.7098 46.774 88.7098Z" fill="#ED8400"/>
<path d="M91.9356 88.7098C92.8264 88.7098 93.5485 87.9877 93.5485 87.0969C93.5485 86.2061 92.8264 85.484 91.9356 85.484C91.0449 85.484 90.3228 86.2061 90.3228 87.0969C90.3228 87.9877 91.0449 88.7098 91.9356 88.7098Z" fill="#ED8400"/>
<path d="M87.0969 74.1936H83.8711V70.9678H93.5484C95.3275 70.9678 96.7742 69.5209 96.7742 67.742V54.8387C96.7742 53.0596 95.3275 51.6129 93.5484 51.6129H90.3227V48.3871C90.3227 46.608 88.876 45.1613 87.0969 45.1613H77.4195C77.4195 43.3822 75.9727 41.9355 74.1937 41.9355V35.484C74.1937 31.9259 71.3002 29.0324 67.7422 29.0324C64.1841 29.0324 61.2906 31.9259 61.2906 35.484H51.118C50.1196 32.8065 48.8131 30.2824 47.2131 27.9776L47.8969 25.9275C48.2211 24.9534 48.3873 23.9373 48.3873 22.905C48.3873 19.1307 46.1599 15.7034 42.7115 14.1712L19.355 3.79058V3.22612C19.3549 1.44685 17.908 0 16.1291 0C7.23545 0 0 7.23545 0 16.1291V18.442V25.8064C0 27.5855 1.44685 29.0322 3.22578 29.0322V54.9177C1.38876 55.279 0 56.8983 0 58.8403C0 59.745 0.309679 60.6322 0.875825 61.3403L4.221 65.5225C1.50158 69.0597 0 73.4001 0 77.8807C0 82.1373 1.3081 86.2178 3.78065 89.6807L4.38233 90.521C7.17752 94.4372 11.7195 96.7742 16.529 96.7742C19.7387 96.7742 22.921 95.7145 25.4855 93.787L27.7388 92.0967C28.5484 91.4935 29.0324 90.5274 29.0324 89.516V87.0967C29.0324 85.3176 27.5855 83.8709 25.8066 83.8709H23.9179L19.355 59.5273V26.2338C24.5438 28.6451 29.0583 32.2919 32.5115 36.8951L38.9115 45.4291L35.5469 65.621C35.5067 65.8694 35.484 66.121 35.484 66.376C35.484 68.9083 37.5436 70.9679 40.0759 70.9679H48.3873V74.1937H45.1615C38.047 74.1937 32.2582 79.9825 32.2582 87.097C32.2582 94.2116 38.047 100 45.1615 100H87.097C94.2116 100 100 94.2116 100 87.097C100 79.9825 94.2112 74.1936 87.0969 74.1936ZM51.6129 87.0969C51.6129 89.7646 49.4419 91.9355 46.7742 91.9355C44.1065 91.9355 41.9355 89.7646 41.9355 87.0969C41.9355 84.4291 44.1065 82.2582 46.7742 82.2582C49.4419 82.258 51.6129 84.4291 51.6129 87.0969ZM83.8711 87.0969H54.8387C54.8387 85.9484 54.5903 84.8614 54.1548 83.8711H83.8711V87.0969ZM62.2146 90.3227C61.7372 91.2887 60.7792 91.9355 59.6775 91.9355C58.5759 91.9355 57.6179 91.2887 57.1405 90.3227H62.2146ZM71.8919 90.3227C71.4145 91.2887 70.4565 91.9355 69.3549 91.9355C68.2532 91.9355 67.2952 91.2887 66.8178 90.3227H71.8919ZM81.5695 90.3227C81.092 91.2887 80.134 91.9355 79.0324 91.9355C77.9308 91.9355 76.9728 91.2887 76.4954 90.3227H81.5695ZM88.229 67.742L93.5483 63.1823V67.742H88.229ZM93.5484 58.9371L83.2758 67.742H67.742V54.8387H93.5484V58.9371ZM64.5162 41.9355H42.7629L43.3 38.7098H64.5162V41.9355ZM64.5162 61.2904H54.8388V54.8388H64.5162V61.2904ZM42.2259 45.1613H51.6129V58.0646H40.0758L42.2259 45.1613ZM54.8387 64.5162H64.516V67.742H54.8387V64.5162ZM64.5162 51.6129H54.8388V45.1613H64.5162V51.6129ZM74.1936 45.1613V51.6129H67.742V45.1613H74.1936ZM87.0969 48.3871V51.6129H77.4195V48.3871H87.0969ZM67.742 32.258C69.5211 32.258 70.9678 33.7049 70.9678 35.4838V41.9354H67.742V38.7096C67.742 36.9305 66.2951 35.4838 64.5162 35.4838C64.5162 33.7049 65.9629 32.258 67.742 32.258ZM45.1613 22.9048C45.1613 23.5872 45.0532 24.2597 44.8372 24.9049L44.8227 24.9468C41.2372 20.8501 36.7114 17.6275 31.6291 15.5936L32.5855 13.2017L41.4017 17.1194C43.6855 18.1338 45.1613 20.4048 45.1613 22.9048ZM29.6354 11.8904L28.5806 14.5275C26.9403 14.0452 25.258 13.6759 23.5387 13.4469L19.8693 12.9565C19.6935 12.934 19.5273 12.9533 19.3549 12.9452V7.321L29.6354 11.8904ZM3.22578 16.1291C3.22578 9.01455 9.01455 3.22578 16.1291 3.22578V13.671C14.2274 14.7195 12.9033 16.7355 12.9033 19.0533V19.4355C12.9033 21.7001 14.1727 23.7726 16.1291 24.8372V58.0645H12.8322L11.3275 24.9822C11.2774 23.9016 10.6936 22.924 9.76458 22.3644L3.22595 18.4418V16.1291H3.22578ZM3.22578 25.8064V22.2033L8.10488 25.1307L8.13552 25.8064H3.22578ZM8.2822 29.0322L9.45474 54.8387H6.45157V29.0322H8.2822ZM3.22578 58.8387C3.22578 58.4129 3.5742 58.0646 3.9999 58.0646H9.60158L9.64991 59.1131L6.32729 62.9889L3.39502 59.3244C3.28557 59.1872 3.22578 59.0145 3.22578 58.8387ZM7.00812 88.6485L6.40644 87.8065C4.32574 84.8936 3.22578 81.4613 3.22578 77.8807C3.22578 73.8081 4.68544 69.8597 7.33699 66.7663L11.6289 61.7599L17.1482 93.4971C16.9418 93.51 16.737 93.5486 16.5289 93.5486C12.7582 93.5484 9.19844 91.7161 7.00812 88.6485ZM23.9194 87.0969H25.8064V89.5162L23.5499 91.2081C22.5709 91.9436 21.4758 92.5096 20.321 92.9065L14.821 61.2904H16.4032L20.7484 84.4662C21.0355 85.9903 22.3678 87.0969 23.9194 87.0969ZM35.0919 34.9613C30.7322 29.1484 24.8306 24.7259 18.0274 22.1742C16.8919 21.7483 16.1291 20.6483 16.1291 19.4371V19.0548C16.1291 17.3129 17.6775 15.9225 19.4419 16.1549L23.113 16.6452C34.0371 18.1017 43.4516 25.3984 47.6711 35.484H43.3C41.7193 35.484 40.3807 36.6163 40.1177 38.1808L39.6418 41.0324L35.0919 34.9613ZM38.7098 66.3758C38.7098 66.3 38.7162 66.2242 38.7291 66.15L39.5388 61.2902H51.6129V67.7418H40.0758C39.3225 67.742 38.7098 67.129 38.7098 66.3758ZM51.6129 70.9678H80.6451V74.1936H51.6129V70.9678ZM35.4838 87.0969C35.4838 81.7597 39.8242 77.4195 45.1612 77.4195H83.8711V80.6453H51.5629C50.2192 79.6454 48.5725 79.0324 46.7742 79.0324C42.3274 79.0324 38.7098 82.6502 38.7098 87.0969C38.7098 91.5435 42.3276 95.1613 46.7742 95.1613C49.8516 95.1613 52.4985 93.4097 53.8581 90.8694L53.9017 90.9984C54.7324 93.4888 57.0534 95.1613 59.6775 95.1613C61.6163 95.1613 63.3873 94.2436 64.5162 92.7614C65.6453 94.2436 67.4161 95.1613 69.3549 95.1613C71.2936 95.1613 73.0646 94.2436 74.1936 92.7614C75.3226 94.2436 77.0935 95.1613 79.0322 95.1613C80.971 95.1613 82.742 94.2436 83.8709 92.7614V96.7742H45.1613C39.8242 96.7742 35.4838 92.4338 35.4838 87.0969ZM87.0969 96.7742V77.4193C92.434 77.4193 96.7742 81.7597 96.7742 87.0967C96.7742 92.4337 92.4338 96.7742 87.0969 96.7742Z" fill="#ED8400"/>
</g>
<defs>
<clipPath id="clip0_27_927">
<rect width="100" height="100" fill="white"/>
</clipPath>
</defs>
</svg>
