<svg width="100" height="100" viewBox="0 0 100 100" fill="none" xmlns="http://www.w3.org/2000/svg">
<path d="M14.0625 98.4375H85.9375C88.0087 98.435 89.9944 97.6111 91.459 96.1465C92.9236 94.6819 93.7475 92.6962 93.75 90.625V40.625C93.7475 38.5538 92.9236 36.5681 91.459 35.1035C89.9944 33.6389 88.0087 32.815 85.9375 32.8125H81.25V9.375C81.2475 7.30376 80.4236 5.31806 78.959 3.85347C77.4944 2.38888 75.5087 1.56498 73.4375 1.5625H14.0625C11.9913 1.56498 10.0056 2.38888 8.54097 3.85347C7.07638 5.31806 6.25248 7.30376 6.25 9.375V90.625C6.25248 92.6962 7.07638 94.6819 8.54097 96.1465C10.0056 97.6111 11.9913 98.435 14.0625 98.4375ZM46.875 40.625V42.1875H32.8125V45.3125H46.875V48.4375H20.3125V51.5625H46.875V54.6875H20.3125V57.8125H46.875V60.9375H20.3125V64.0625H46.875V67.1875H20.3125V70.3125H46.875V73.4375H23.4375V76.5625H46.875V89.0625H28.125V79.6875C28.125 79.2731 27.9604 78.8757 27.6674 78.5826C27.3743 78.2896 26.9769 78.125 26.5625 78.125H17.1875V10.9375H28.125C28.125 12.5951 28.7835 14.1848 29.9556 15.3569C31.1277 16.529 32.7174 17.1875 34.375 17.1875H53.125C54.7826 17.1875 56.3723 16.529 57.5444 15.3569C58.7165 14.1848 59.375 12.5951 59.375 10.9375H70.3125V32.8125H67.1875V21.875C67.1875 21.4606 67.0229 21.0632 66.7299 20.7701C66.4368 20.4771 66.0394 20.3125 65.625 20.3125H21.875C21.4606 20.3125 21.0632 20.4771 20.7701 20.7701C20.4771 21.0632 20.3125 21.4606 20.3125 21.875V37.5C20.3125 37.9144 20.4771 38.3118 20.7701 38.6049C21.0632 38.8979 21.4606 39.0625 21.875 39.0625H47.0312C46.9268 39.5768 46.8745 40.1002 46.875 40.625ZM25 86.8531L19.3969 81.25H25V86.8531ZM31.25 4.6875H56.25V10.9375C56.25 11.7663 55.9208 12.5612 55.3347 13.1472C54.7487 13.7333 53.9538 14.0625 53.125 14.0625H34.375C33.5462 14.0625 32.7513 13.7333 32.1653 13.1472C31.5792 12.5612 31.25 11.7663 31.25 10.9375V4.6875ZM48.4781 35.9375H23.4375V23.4375H64.0625V32.8125H54.6875C53.481 32.816 52.2919 33.1002 51.2142 33.6426C50.1365 34.185 49.1998 34.9706 48.4781 35.9375ZM90.625 40.625V90.625C90.625 91.8682 90.1311 93.0605 89.2521 93.9396C88.373 94.8186 87.1807 95.3125 85.9375 95.3125H54.6875C53.4443 95.3125 52.252 94.8186 51.3729 93.9396C50.4939 93.0605 50 91.8682 50 90.625V40.625C50 39.3818 50.4939 38.1895 51.3729 37.3104C52.252 36.4314 53.4443 35.9375 54.6875 35.9375H85.9375C87.1807 35.9375 88.373 36.4314 89.2521 37.3104C90.1311 38.1895 90.625 39.3818 90.625 40.625ZM78.125 9.375V32.8125H73.4375V9.375C73.4375 8.9606 73.2729 8.56317 72.9799 8.27015C72.6868 7.97712 72.2894 7.8125 71.875 7.8125H59.375V4.6875H73.4375C74.6807 4.6875 75.873 5.18136 76.7521 6.06044C77.6311 6.93951 78.125 8.1318 78.125 9.375ZM9.375 9.375C9.375 8.1318 9.86886 6.93951 10.7479 6.06044C11.627 5.18136 12.8193 4.6875 14.0625 4.6875H28.125V7.8125H15.625C15.2106 7.8125 14.8132 7.97712 14.5201 8.27015C14.2271 8.56317 14.0625 8.9606 14.0625 9.375V79.6875C14.0626 80.1019 14.2273 80.4992 14.5203 80.7922L25.4578 91.7297C25.7508 92.0227 26.1481 92.1874 26.5625 92.1875H47.0312C47.2723 93.3245 47.7663 94.3925 48.4766 95.3125H14.0625C12.8193 95.3125 11.627 94.8186 10.7479 93.9396C9.86886 93.0605 9.375 91.8682 9.375 90.625V9.375Z" fill="#ED8400"/>
<path d="M34.375 7.8125H37.5V10.9375H34.375V7.8125Z" fill="#ED8400"/>
<path d="M50 7.8125H53.125V10.9375H50V7.8125Z" fill="#ED8400"/>
<path d="M53.125 40.625V53.125C53.125 53.5394 53.2896 53.9368 53.5826 54.2299C53.8757 54.5229 54.2731 54.6875 54.6875 54.6875H85.9375C86.3519 54.6875 86.7493 54.5229 87.0424 54.2299C87.3354 53.9368 87.5 53.5394 87.5 53.125V40.625C87.5 40.2106 87.3354 39.8132 87.0424 39.5201C86.7493 39.2271 86.3519 39.0625 85.9375 39.0625H54.6875C54.2731 39.0625 53.8757 39.2271 53.5826 39.5201C53.2896 39.8132 53.125 40.2106 53.125 40.625ZM56.25 42.1875H84.375V51.5625H56.25V42.1875Z" fill="#ED8400"/>
<path d="M85.9375 76.5625H79.6875C79.2731 76.5625 78.8757 76.7271 78.5826 77.0201C78.2896 77.3132 78.125 77.7106 78.125 78.125V90.625C78.125 91.0394 78.2896 91.4368 78.5826 91.7299C78.8757 92.0229 79.2731 92.1875 79.6875 92.1875H85.9375C86.3519 92.1875 86.7493 92.0229 87.0424 91.7299C87.3354 91.4368 87.5 91.0394 87.5 90.625V78.125C87.5 77.7106 87.3354 77.3132 87.0424 77.0201C86.7493 76.7271 86.3519 76.5625 85.9375 76.5625ZM84.375 89.0625H81.25V79.6875H84.375V89.0625Z" fill="#ED8400"/>
<path d="M85.9375 57.8125H79.6875C79.2731 57.8125 78.8757 57.9771 78.5826 58.2701C78.2896 58.5632 78.125 58.9606 78.125 59.375V71.875C78.125 72.2894 78.2896 72.6868 78.5826 72.9799C78.8757 73.2729 79.2731 73.4375 79.6875 73.4375H85.9375C86.3519 73.4375 86.7493 73.2729 87.0424 72.9799C87.3354 72.6868 87.5 72.2894 87.5 71.875V59.375C87.5 58.9606 87.3354 58.5632 87.0424 58.2701C86.7493 57.9771 86.3519 57.8125 85.9375 57.8125ZM84.375 70.3125H81.25V60.9375H84.375V70.3125Z" fill="#ED8400"/>
<path d="M60.9375 57.8125H54.6875C54.2731 57.8125 53.8757 57.9771 53.5826 58.2701C53.2896 58.5632 53.125 58.9606 53.125 59.375V65.625C53.125 66.0394 53.2896 66.4368 53.5826 66.7299C53.8757 67.0229 54.2731 67.1875 54.6875 67.1875H60.9375C61.3519 67.1875 61.7493 67.0229 62.0424 66.7299C62.3354 66.4368 62.5 66.0394 62.5 65.625V59.375C62.5 58.9606 62.3354 58.5632 62.0424 58.2701C61.7493 57.9771 61.3519 57.8125 60.9375 57.8125ZM59.375 64.0625H56.25V60.9375H59.375V64.0625Z" fill="#ED8400"/>
<path d="M73.4375 57.8125H67.1875C66.7731 57.8125 66.3757 57.9771 66.0826 58.2701C65.7896 58.5632 65.625 58.9606 65.625 59.375V65.625C65.625 66.0394 65.7896 66.4368 66.0826 66.7299C66.3757 67.0229 66.7731 67.1875 67.1875 67.1875H73.4375C73.8519 67.1875 74.2493 67.0229 74.5424 66.7299C74.8354 66.4368 75 66.0394 75 65.625V59.375C75 58.9606 74.8354 58.5632 74.5424 58.2701C74.2493 57.9771 73.8519 57.8125 73.4375 57.8125ZM71.875 64.0625H68.75V60.9375H71.875V64.0625Z" fill="#ED8400"/>
<path d="M60.9375 70.3125H54.6875C54.2731 70.3125 53.8757 70.4771 53.5826 70.7701C53.2896 71.0632 53.125 71.4606 53.125 71.875V78.125C53.125 78.5394 53.2896 78.9368 53.5826 79.2299C53.8757 79.5229 54.2731 79.6875 54.6875 79.6875H60.9375C61.3519 79.6875 61.7493 79.5229 62.0424 79.2299C62.3354 78.9368 62.5 78.5394 62.5 78.125V71.875C62.5 71.4606 62.3354 71.0632 62.0424 70.7701C61.7493 70.4771 61.3519 70.3125 60.9375 70.3125ZM59.375 76.5625H56.25V73.4375H59.375V76.5625Z" fill="#ED8400"/>
<path d="M73.4375 70.3125H67.1875C66.7731 70.3125 66.3757 70.4771 66.0826 70.7701C65.7896 71.0632 65.625 71.4606 65.625 71.875V78.125C65.625 78.5394 65.7896 78.9368 66.0826 79.2299C66.3757 79.5229 66.7731 79.6875 67.1875 79.6875H73.4375C73.8519 79.6875 74.2493 79.5229 74.5424 79.2299C74.8354 78.9368 75 78.5394 75 78.125V71.875C75 71.4606 74.8354 71.0632 74.5424 70.7701C74.2493 70.4771 73.8519 70.3125 73.4375 70.3125ZM71.875 76.5625H68.75V73.4375H71.875V76.5625Z" fill="#ED8400"/>
<path d="M60.9375 82.8125H54.6875C54.2731 82.8125 53.8757 82.9771 53.5826 83.2701C53.2896 83.5632 53.125 83.9606 53.125 84.375V90.625C53.125 91.0394 53.2896 91.4368 53.5826 91.7299C53.8757 92.0229 54.2731 92.1875 54.6875 92.1875H60.9375C61.3519 92.1875 61.7493 92.0229 62.0424 91.7299C62.3354 91.4368 62.5 91.0394 62.5 90.625V84.375C62.5 83.9606 62.3354 83.5632 62.0424 83.2701C61.7493 82.9771 61.3519 82.8125 60.9375 82.8125ZM59.375 89.0625H56.25V85.9375H59.375V89.0625Z" fill="#ED8400"/>
<path d="M73.4375 82.8125H67.1875C66.7731 82.8125 66.3757 82.9771 66.0826 83.2701C65.7896 83.5632 65.625 83.9606 65.625 84.375V90.625C65.625 91.0394 65.7896 91.4368 66.0826 91.7299C66.3757 92.0229 66.7731 92.1875 67.1875 92.1875H73.4375C73.8519 92.1875 74.2493 92.0229 74.5424 91.7299C74.8354 91.4368 75 91.0394 75 90.625V84.375C75 83.9606 74.8354 83.5632 74.5424 83.2701C74.2493 82.9771 73.8519 82.8125 73.4375 82.8125ZM71.875 89.0625H68.75V85.9375H71.875V89.0625Z" fill="#ED8400"/>
</svg>
