<svg width="100" height="100" viewBox="0 0 100 100" fill="none" xmlns="http://www.w3.org/2000/svg">
<g clip-path="url(#clip0_27_930)">
<path d="M98.4324 53.0939C98.4316 53.0648 98.4304 53.0356 98.4279 53.0065C98.4261 52.9859 98.4238 52.9658 98.4212 52.9454C98.4177 52.9184 98.4138 52.8914 98.4089 52.8646C98.4048 52.8425 98.4001 52.8205 98.395 52.7988C98.3893 52.7748 98.3834 52.7509 98.3766 52.727C98.3697 52.7027 98.3619 52.6791 98.3539 52.6554C98.3466 52.6346 98.3392 52.6139 98.3312 52.5933C98.321 52.5673 98.3099 52.5421 98.2981 52.5168C98.2897 52.4988 98.2813 52.4808 98.2723 52.463C98.2586 52.4364 98.2439 52.4106 98.2288 52.3849C98.2226 52.3746 98.2177 52.3636 98.2112 52.3532L92.6922 43.5227C93.3451 42.7286 93.7378 41.7127 93.7378 40.6067C93.7378 38.584 92.4247 36.8634 90.6067 36.2493V9.19765H90.7046C93.2404 9.19765 95.3034 7.13464 95.3034 4.59883V1.46771C95.3034 0.657143 94.6463 0 93.8357 0H81.9028C80.2711 0 78.6326 0.376321 77.1645 1.08826L31.3607 23.2959C30.5257 22.4462 29.3646 21.9178 28.0821 21.9178H27.3425C25.2744 21.9178 23.45 23.3113 22.9057 25.3067L21.2682 31.3112H17.1232C16.3126 31.3112 15.6554 31.9683 15.6554 32.7789C15.6554 33.5894 16.3126 34.2466 17.1232 34.2466H20.4676L19.1333 39.1389H6.16426C3.62844 39.1389 1.56543 41.202 1.56543 43.7378V54.6967V60.9589C1.56543 61.7695 2.22257 62.4266 3.03314 62.4266H20.3521V65.7534H10.8609C8.32512 65.7534 6.2621 67.8164 6.2621 70.3522V76.6145V90.3579L4.85154 93.1793C4.74958 93.3832 4.69655 93.6076 4.69655 93.8356V97.0646H4.5987C3.78813 97.0646 3.13099 97.7217 3.13099 98.5323C3.13099 99.3429 3.78813 100 4.5987 100H15.5576C16.3682 100 17.0253 99.3429 17.0253 98.5323C17.0253 97.7217 16.3682 97.0646 15.5576 97.0646H15.4598V78.0822H39.1388V97.0646H39.041C38.2304 97.0646 37.5733 97.7217 37.5733 98.5323C37.5733 99.3429 38.2304 100 39.041 100H49.9999C50.8104 100 51.4676 99.3429 51.4676 98.5323C51.4676 97.7217 50.8104 97.0646 49.9999 97.0646H49.902V93.8356C49.902 93.6076 49.849 93.383 49.747 93.1793L48.3365 90.3579V76.6145V70.3522C48.3365 67.8164 46.2735 65.7534 43.7376 65.7534H34.2464V62.4266H37.4754C38.286 62.4266 38.9431 61.7695 38.9431 60.9589V54.6967C38.9431 54.1464 38.6398 53.6673 38.1915 53.416L50.7026 46.5918C50.8257 46.5247 50.9386 46.4403 51.0376 46.3411L87.6711 9.70763V36.2493C85.8531 36.8634 84.54 38.584 84.54 40.6067C84.54 41.7127 84.9325 42.7286 85.5856 43.5227L80.0666 52.3532C80.0601 52.3636 80.0553 52.3744 80.049 52.3849C80.0337 52.4106 80.0191 52.4364 80.0055 52.463C79.9964 52.4808 79.9879 52.4988 79.9797 52.5168C79.968 52.5421 79.957 52.5675 79.9466 52.5933C79.9384 52.6139 79.931 52.6346 79.9239 52.6554C79.9159 52.6791 79.9081 52.7027 79.9012 52.727C79.8944 52.7509 79.8883 52.7748 79.8828 52.7988C79.8778 52.8205 79.8731 52.8425 79.869 52.8646C79.8641 52.8916 79.8599 52.9184 79.8566 52.9454C79.8541 52.9656 79.8515 52.9859 79.85 53.0065C79.8474 53.0356 79.8462 53.0648 79.8455 53.0939C79.8451 53.1065 79.8435 53.1186 79.8435 53.1311V62.5245C79.8435 63.335 80.5007 63.9922 81.3112 63.9922H96.9668C97.7774 63.9922 98.4345 63.335 98.4345 62.5245V53.1311C98.4343 53.1186 98.4327 53.1065 98.4324 53.0939ZM89.1388 45.2055C89.5053 45.2055 89.8617 45.1611 90.2036 45.0796L94.3185 51.6634H83.9592L88.074 45.0796C88.4159 45.1611 88.7723 45.2055 89.1388 45.2055ZM78.4449 3.72955C79.1909 3.36791 79.9977 3.12779 80.8206 3.0137L52.5232 31.3112H32.6809V26.5166C32.6809 26.32 32.667 26.1266 32.6429 25.9364L78.4449 3.72955ZM32.6809 34.2466H49.5877L32.6809 51.1534V34.2466ZM25.7378 26.0789C25.9347 25.3571 26.5946 24.8532 27.3425 24.8532H28.0821C28.9993 24.8532 29.7455 25.5994 29.7455 26.5166V39.1389H22.1758L25.7378 26.0789ZM6.16426 42.0744H29.7455V53.229H4.50085V43.7378C4.50085 42.8205 5.24703 42.0744 6.16426 42.0744ZM12.5243 97.0646H7.63197V94.1822L9.04253 91.3609C9.14449 91.1571 9.19752 90.9325 9.19752 90.7045V78.0822H12.5243V97.0646ZM42.0742 97.0646V78.0822H45.401V90.7045C45.401 90.9325 45.4541 91.1571 45.556 91.3609L46.9666 94.1822V97.0646H42.0742ZM45.401 70.3522V75.1468H9.19752V70.3522C9.19752 69.435 9.94371 68.6888 10.8609 68.6888H43.7376C44.6549 68.6888 45.401 69.435 45.401 70.3522ZM31.311 65.7534H23.2875V62.4266H31.311V65.7534ZM36.0077 59.4912H4.50085V56.1644H32.7758C32.7772 56.1644 32.7787 56.1646 32.7801 56.1646C32.7817 56.1646 32.7832 56.1644 32.7848 56.1644H36.0077V59.4912ZM86.5355 6.69217L49.1114 44.116L37.5789 50.4065L54.1686 33.8168C54.1688 33.8166 54.1689 33.8164 54.1691 33.8162L85.05 2.93542H92.3678V4.59883C92.3678 5.51605 91.6216 6.26223 90.7044 6.26223H87.5733C87.184 6.26223 86.8106 6.41683 86.5355 6.69217ZM89.1388 38.9432C90.056 38.9432 90.8022 39.6894 90.8022 40.6067C90.8022 41.5239 90.056 42.2701 89.1388 42.2701C88.2216 42.2701 87.4754 41.5239 87.4754 40.6067C87.4754 39.6894 88.2216 38.9432 89.1388 38.9432ZM95.4989 61.0568H82.7787V54.5988H95.4989V61.0568Z" fill="#ED8400"/>
<path d="M9.29535 48.3366H12.4265C13.237 48.3366 13.8942 47.6795 13.8942 46.8689C13.8942 46.0583 13.237 45.4012 12.4265 45.4012H9.29535C8.48478 45.4012 7.82764 46.0583 7.82764 46.8689C7.82764 47.6795 8.48478 48.3366 9.29535 48.3366Z" fill="#ED8400"/>
<path d="M21.8198 48.3366H24.9509C25.7614 48.3366 26.4186 47.6795 26.4186 46.8689C26.4186 46.0583 25.7614 45.4012 24.9509 45.4012H21.8198C21.0092 45.4012 20.3521 46.0583 20.3521 46.8689C20.3521 47.6795 21.0092 48.3366 21.8198 48.3366Z" fill="#ED8400"/>
<path d="M17.123 48.3366C17.5085 48.3366 17.8882 48.18 18.1602 47.9061C18.4341 47.6341 18.5907 47.2544 18.5907 46.8689C18.5907 46.4814 18.4341 46.1037 18.1602 45.8317C17.8882 45.5577 17.5085 45.4012 17.123 45.4012C16.7375 45.4012 16.3578 45.5577 16.0858 45.8317C15.8118 46.1037 15.6553 46.4814 15.6553 46.8689C15.6553 47.2544 15.8118 47.6341 16.0858 47.9061C16.3578 48.18 16.7375 48.3366 17.123 48.3366Z" fill="#ED8400"/>
</g>
<defs>
<clipPath id="clip0_27_930">
<rect width="100" height="100" fill="white"/>
</clipPath>
</defs>
</svg>
