<svg width="100" height="100" viewBox="0 0 100 100" fill="none" xmlns="http://www.w3.org/2000/svg">
<path d="M96.0497 12.6848C95.8003 12.5515 95.5195 12.4882 95.237 12.5019C94.9546 12.5156 94.6811 12.6056 94.4458 12.7625L90.8241 15.177L88.6049 12.9576C88.3118 12.6646 87.9144 12.5 87.5 12.5H85.3407L82.6475 7.11365C82.5178 6.85411 82.3183 6.63585 82.0714 6.48331C81.8246 6.33076 81.5402 6.24998 81.25 6.25H73.4375C73.0231 6.25002 72.6257 6.41465 72.3327 6.70767C72.0396 7.00069 71.875 7.39811 71.875 7.8125V15.625H68.75C68.3356 15.625 67.9382 15.7896 67.6452 16.0827C67.3521 16.3757 67.1875 16.7731 67.1875 17.1875V21.875C67.1875 22.2235 67.3039 22.5619 67.5184 22.8366C67.7328 23.1112 68.033 23.3063 68.371 23.3908L70.9614 24.0385L66.7547 26.5625H64.0625C63.7346 26.5625 63.4149 26.6657 63.1489 26.8574C62.8828 27.0491 62.6838 27.3197 62.5801 27.6308L61.2469 31.6309L54.5553 34.3075L41.8276 31.4791L40.5449 27.6308C40.4618 27.3815 40.317 27.1571 40.1242 26.9786C39.9313 26.8 39.6965 26.673 39.4415 26.6092L34.375 25.3426V21.875C34.375 21.4606 34.2104 21.0632 33.9174 20.7701L30.7924 17.6451C30.5605 17.4132 30.2615 17.2602 29.9378 17.2077C29.614 17.1552 29.282 17.2058 28.9886 17.3525L16.4886 23.6025C16.2291 23.7323 16.0108 23.9317 15.8583 24.1786C15.7058 24.4254 15.625 24.7098 15.625 25V29.8706L4.49371 31.262C4.11582 31.3093 3.76819 31.4929 3.51615 31.7784C3.26411 32.0639 3.12501 32.4317 3.125 32.8125V40.625C3.12501 41.0394 3.2896 41.4368 3.58257 41.7299L8.92696 47.0741L6.51245 50.6958C6.29555 51.0211 6.20851 51.4159 6.26851 51.8023C6.3285 52.1886 6.53117 52.5384 6.83651 52.7826L22.4615 65.2826C22.6565 65.4387 22.8861 65.5457 23.131 65.5947L30.9435 67.1572C31.1172 67.1919 31.2956 67.1969 31.4711 67.1719L40.625 65.864V68.4965L39.1426 72.9433C39.0415 73.2465 39.0359 73.5735 39.1265 73.88C39.217 74.1866 39.3994 74.458 39.649 74.6576L47.4615 80.9076C47.7385 81.1293 48.0827 81.25 48.4375 81.25C48.7923 81.25 49.1365 81.1293 49.4135 80.9076L56.25 75.4385L63.0865 80.9076C63.3502 81.1185 63.6751 81.2383 64.0126 81.2491C64.3501 81.2599 64.6819 81.1611 64.9586 80.9675L80.5836 70.03C80.7965 69.881 80.9688 69.6813 81.085 69.4489L87.335 56.9489C87.4685 56.6819 87.5227 56.3823 87.4913 56.0855C87.4599 55.7887 87.3441 55.5071 87.1576 55.274L81.5321 48.242L84.21 42.8863C84.3437 42.6191 84.3979 42.3191 84.3662 42.0219C84.3345 41.7248 84.2183 41.4429 84.0313 41.2098C83.8444 40.9767 83.5944 40.8021 83.3112 40.7068C83.028 40.6114 82.7234 40.5992 82.4335 40.6717L77.2518 41.967L75.5575 39.4257L79.8525 36.2043L82.1136 37.335C82.3886 37.4726 82.6981 37.526 83.0034 37.4885C83.3086 37.4509 83.5959 37.3241 83.8293 37.1239L94.7668 27.7489C95.0314 27.5221 95.2126 27.2133 95.2815 26.8718C95.3505 26.5302 95.3033 26.1753 95.1475 25.8636L94.2839 24.1363L96.0114 23.2725C96.2709 23.1427 96.4892 22.9433 96.6417 22.6964C96.7942 22.4496 96.875 22.1652 96.875 21.875V14.0625C96.875 13.7797 96.7982 13.5022 96.6529 13.2595C96.5075 13.0169 96.299 12.8183 96.0497 12.6848ZM93.75 20.9093L91.4886 22.04C91.118 22.2254 90.8362 22.5504 90.7052 22.9435C90.5742 23.3366 90.6047 23.7657 90.79 24.1364L91.8068 26.1702L82.5832 34.0759L80.3864 32.9775C80.1268 32.8476 79.8363 32.7925 79.5472 32.8186C79.2582 32.8446 78.9821 32.9507 78.75 33.1249L72.5 37.8124C72.1805 38.0521 71.9649 38.405 71.8975 38.7987C71.83 39.1923 71.9159 39.5969 72.1375 39.9292L75.2625 44.6167C75.4411 44.885 75.6984 45.0914 75.999 45.2076C76.2996 45.3238 76.6289 45.3442 76.9415 45.2658L79.8956 44.5272L78.29 47.7387C78.1565 48.0056 78.1023 48.3052 78.1337 48.602C78.1651 48.8988 78.2809 49.1804 78.4674 49.4135L84.0929 56.4455L78.467 67.697L64.1249 77.7365L57.226 72.2174C56.949 71.9957 56.6048 71.875 56.25 71.875C55.8952 71.875 55.551 71.9957 55.274 72.2174L48.4375 77.6865L42.4519 72.8981L43.6699 69.2442C43.7229 69.0848 43.75 68.918 43.75 68.75V64.0625C43.75 63.8386 43.7019 63.6174 43.6089 63.4137C43.516 63.2101 43.3803 63.0288 43.2112 62.8821C43.0421 62.7354 42.8434 62.6268 42.6287 62.5635C42.4139 62.5003 42.1881 62.484 41.9664 62.5156L31.2939 64.0404L24.1167 62.6049L9.90715 51.2373L12.2375 47.7417C12.4379 47.4412 12.528 47.0805 12.4924 46.721C12.4568 46.3616 12.2978 46.0255 12.0424 45.7701L6.25 39.9778V34.1919L17.3813 32.8005C17.7592 32.7532 18.1068 32.5696 18.3589 32.2841C18.6109 31.9986 18.75 31.6308 18.75 31.25V25.9657L29.3789 20.6512L31.25 22.5222V26.5625C31.25 26.911 31.3664 27.2494 31.5809 27.5241C31.7953 27.7987 32.0954 27.9938 32.4335 28.0783L37.8513 29.4329L39.1426 33.3067C39.228 33.5627 39.3782 33.7922 39.5785 33.9728C39.7789 34.1535 40.0227 34.2793 40.2861 34.3378L54.3486 37.4628C54.6555 37.5308 54.9758 37.5048 55.2677 37.3882L63.0802 34.2632C63.2911 34.1789 63.481 34.0497 63.6368 33.8845C63.7926 33.7193 63.9106 33.5221 63.9824 33.3067L65.1886 29.6875H67.1875C67.4707 29.6875 67.7486 29.6105 67.9914 29.4649L75.8039 24.7774C76.0689 24.6184 76.2808 24.3844 76.4128 24.105C76.5449 23.8256 76.591 23.5133 76.5455 23.2076C76.5001 22.9019 76.3649 22.6166 76.1573 22.3877C75.9497 22.1588 75.6788 21.9967 75.379 21.9217L70.3125 20.6551V18.75H73.4375C73.8519 18.75 74.2493 18.5854 74.5423 18.2923C74.8354 17.9993 75 17.6019 75 17.1875V9.375H80.2843L82.9775 14.7614C83.1072 15.0209 83.3067 15.2392 83.5536 15.3917C83.8004 15.5442 84.0848 15.625 84.375 15.625H86.8528L89.5201 18.2924C89.7755 18.5478 90.1116 18.7068 90.471 18.7424C90.8305 18.778 91.1911 18.6879 91.4917 18.4875L93.75 16.9821V20.9093Z" fill="#ED8400"/>
<path d="M62.7654 83.4624L60.3253 85.9024C59.701 86.5269 59.2756 87.3224 59.1029 88.1884C58.9302 89.0545 59.0179 89.9522 59.355 90.7685C59.692 91.5847 60.2633 92.2828 60.9967 92.7747C61.7301 93.2665 62.5928 93.5301 63.4759 93.5322C63.6616 93.5322 63.8473 93.5208 64.0317 93.4981C64.7063 93.4171 65.3533 93.1823 65.923 92.812C66.4927 92.4416 66.9698 91.9455 67.3176 91.3618L69.0928 88.403C69.6007 87.5566 69.7815 86.5538 69.6012 85.5833C69.4209 84.6129 68.892 83.7419 68.114 83.1344C67.336 82.527 66.3628 82.225 65.3776 82.2854C64.3924 82.3458 63.4633 82.7644 62.7654 83.4624ZM66.4132 86.7951L64.6378 89.7541C64.5399 89.9174 64.4084 90.0579 64.252 90.1665C64.0957 90.2751 63.9181 90.3492 63.7309 90.384C63.5437 90.4188 63.3513 90.4134 63.1664 90.3682C62.9815 90.323 62.8083 90.2391 62.6583 90.1219C62.5082 90.0048 62.3848 89.8571 62.2961 89.6887C62.2075 89.5202 62.1556 89.3348 62.144 89.1448C62.1323 88.9548 62.1612 88.7645 62.2286 88.5865C62.2961 88.4085 62.4005 88.2469 62.5351 88.1123L64.9752 85.6722C65.1338 85.5136 65.345 85.4185 65.5689 85.4048C65.7928 85.3911 66.0139 85.4597 66.1907 85.5978C66.3675 85.7358 66.4877 85.9338 66.5287 86.1543C66.5697 86.3748 66.5286 86.6027 66.4132 86.7951V86.7951Z" fill="#ED8400"/>
<path d="M92.8186 70.3905C92.498 69.4286 91.874 68.5968 91.0403 68.0198C90.2066 67.4429 89.2082 67.152 88.195 67.191C87.1819 67.2299 86.2087 67.5964 85.4217 68.2356C84.6347 68.8748 84.0763 69.7521 83.8304 70.7357C83.473 72.1827 83.4942 73.6973 83.892 75.1337C84.2898 76.5701 85.0508 77.8798 86.1017 78.9368L86.6228 79.4579C87.0491 79.8869 87.556 80.2275 88.1144 80.4601C88.6727 80.6927 89.2715 80.8126 89.8764 80.813C90.3762 80.8127 90.8727 80.7317 91.3467 80.5731C91.9219 80.3814 92.4536 80.0783 92.9116 79.6811C93.3697 79.2839 93.7449 78.8004 94.0161 78.2582C94.2872 77.7159 94.4489 77.1256 94.4918 76.5209C94.5348 75.9161 94.4582 75.3089 94.2665 74.7337L92.8186 70.3905ZM90.3585 77.6085C90.0959 77.6969 89.8138 77.71 89.5441 77.6463C89.2744 77.5826 89.028 77.4446 88.8327 77.248L88.3116 76.7269C87.6409 76.0525 87.1552 75.2168 86.9014 74.3002C86.6475 73.3836 86.6339 72.4171 86.862 71.4937L86.8622 71.4935C86.944 71.1661 87.1299 70.8741 87.3918 70.6613C87.6538 70.4486 87.9777 70.3266 88.3149 70.3136C88.6522 70.3007 88.9845 70.3975 89.262 70.5896C89.5395 70.7816 89.7472 71.0585 89.8539 71.3787L91.3017 75.7219C91.4264 76.0972 91.3971 76.5066 91.2202 76.8602C91.0434 77.2139 90.7335 77.483 90.3585 77.6085Z" fill="#ED8400"/>
<path d="M49.6799 52.2566L55.3842 48.1121C55.6512 47.9182 55.8499 47.6447 55.9518 47.3309C56.0538 47.0171 56.0538 46.679 55.9518 46.3652C55.8499 46.0514 55.6512 45.778 55.3842 45.584C55.1173 45.3901 54.7958 45.2856 54.4659 45.2856H47.415L45.236 38.5798C45.1341 38.2659 44.9354 37.9924 44.6684 37.7984C44.4015 37.6045 44.08 37.5 43.75 37.5C43.42 37.5 43.0985 37.6045 42.8316 37.7984C42.5646 37.9924 42.3659 38.2659 42.264 38.5798L40.085 45.2856H33.0341C32.7042 45.2856 32.3827 45.3901 32.1157 45.584C31.8488 45.778 31.6501 46.0514 31.5482 46.3652C31.4462 46.679 31.4462 47.0171 31.5482 47.3309C31.6501 47.6447 31.8488 47.9182 32.1157 48.1121L37.82 52.2566L35.6413 58.9626C35.5393 59.2765 35.5393 59.6145 35.6413 59.9283C35.7432 60.2421 35.9419 60.5156 36.2089 60.7096C36.4758 60.9035 36.7974 61.0079 37.1273 61.0079C37.4573 61.0079 37.7788 60.9034 38.0457 60.7094L43.75 56.5649L49.4543 60.7094C49.7212 60.9034 50.0427 61.0079 50.3727 61.0079C50.7026 61.0079 51.0242 60.9035 51.2911 60.7095C51.5581 60.5156 51.7568 60.2421 51.8587 59.9283C51.9607 59.6145 51.9607 59.2764 51.8587 58.9626L49.6799 52.2566ZM46.9248 50.3958C46.6578 50.5897 46.4591 50.8631 46.3572 51.1769C46.2552 51.4907 46.2552 51.8287 46.3571 52.1425L47.4007 55.3547L44.6684 53.3695C44.4015 53.1755 44.08 53.071 43.75 53.071C43.42 53.071 43.0985 53.1755 42.8316 53.3695L40.0993 55.3547L41.1428 52.1425C41.2448 51.8287 41.2448 51.4907 41.1428 51.1769C41.0409 50.8631 40.8422 50.5897 40.5752 50.3958L37.8429 48.4106H41.2203C41.5503 48.4106 41.8718 48.3061 42.1387 48.1122C42.4057 47.9182 42.6044 47.6447 42.7063 47.3309L43.75 44.1189L44.7937 47.3309C44.8956 47.6447 45.0943 47.9182 45.3613 48.1122C45.6282 48.3061 45.9497 48.4106 46.2797 48.4106H49.6571L46.9248 50.3958Z" fill="#ED8400"/>
<path d="M56.25 67.1875C57.1129 67.1875 57.8125 66.4879 57.8125 65.625C57.8125 64.7621 57.1129 64.0625 56.25 64.0625C55.3871 64.0625 54.6875 64.7621 54.6875 65.625C54.6875 66.4879 55.3871 67.1875 56.25 67.1875Z" fill="#ED8400"/>
<path d="M60.9375 60.9375C61.8004 60.9375 62.5 60.2379 62.5 59.375C62.5 58.5121 61.8004 57.8125 60.9375 57.8125C60.0746 57.8125 59.375 58.5121 59.375 59.375C59.375 60.2379 60.0746 60.9375 60.9375 60.9375Z" fill="#ED8400"/>
<path d="M62.5 53.125C63.3629 53.125 64.0625 52.4254 64.0625 51.5625C64.0625 50.6996 63.3629 50 62.5 50C61.6371 50 60.9375 50.6996 60.9375 51.5625C60.9375 52.4254 61.6371 53.125 62.5 53.125Z" fill="#ED8400"/>
<path d="M60.9375 43.75C61.8004 43.75 62.5 43.0504 62.5 42.1875C62.5 41.3246 61.8004 40.625 60.9375 40.625C60.0746 40.625 59.375 41.3246 59.375 42.1875C59.375 43.0504 60.0746 43.75 60.9375 43.75Z" fill="#ED8400"/>
</svg>
