<svg width="100" height="100" viewBox="0 0 100 100" fill="none" xmlns="http://www.w3.org/2000/svg">
<g clip-path="url(#clip0_27_929)">
<path d="M8.4551 88.8641C7.2065 88.8641 5.89194 88.7404 4.77617 88.3685C1.32535 87.2207 0.257214 80.7267 0.0126244 78.7645C-0.0450878 78.3083 0.0969025 77.8502 0.401037 77.5058C0.704255 77.1623 1.14122 76.9644 1.60017 76.9644C1.5562 76.9644 2.93396 76.8077 5.07115 74.6724C6.74114 73.0024 7.36406 67.7057 7.36406 64.7587C7.36406 64.1202 7.7424 63.544 8.32593 63.2903L29.4981 54.0856C30.1805 53.7934 30.9739 54.0004 31.4163 54.5931C31.6133 54.8386 33.5846 57.1059 37.7042 55.042C39.5354 54.1278 41.9786 53.3253 44.3411 52.5503C46.8044 51.7414 51.3454 50.25 51.9344 49.2396C51.9197 49.224 51.8987 49.1911 51.8684 49.1489C50.4421 47.2499 48.7694 46.8991 47.5483 46.6444C46.6936 46.4649 45.1042 46.1332 45.1042 44.5072C45.1042 44.3506 45.1225 44.0849 45.1518 43.7396C45.488 39.6631 44.7982 38.8084 44.3576 38.6609C42.563 38.07 39.5776 40.2512 38.9326 41.541C38.219 42.9664 36.7588 47.1876 36.2568 48.6955C36.0818 49.2204 35.6458 49.6189 35.1062 49.7462C34.5667 49.879 33.9996 49.7132 33.6066 49.3211C31.5125 47.2289 29.0116 45.295 28.255 45.1851C28.2541 45.1851 28.2531 45.1851 28.2531 45.1851C25.101 45.1851 24.8527 40.439 24.8527 38.9833C24.8527 38.6197 24.9764 38.2679 25.2036 37.983L28.8861 33.3816C28.9603 33.29 29.0446 33.2066 29.1362 33.1315C30.1228 32.3418 38.9244 25.4164 43.9435 25.4164C48.2719 25.4164 61.9699 28.9716 63.486 30.4877C64.1107 31.1134 64.1107 32.1284 63.4851 32.7522C62.8924 33.3459 61.9488 33.3743 61.3204 32.8429C59.8538 31.9672 48.239 28.618 43.9435 28.618C41.0433 28.618 34.7004 32.8063 31.2743 35.5243L28.0718 39.5247C28.1313 40.5471 28.3411 41.595 28.5719 42.0009C30.1421 42.1777 32.2793 43.7661 34.0317 45.3207C34.6583 43.5426 35.5084 41.2286 36.069 40.1092C37.2123 37.8163 41.6131 34.3654 45.3708 35.625C48.7034 36.7353 48.5578 41.2103 48.3791 43.5472C49.8375 43.8559 52.3649 44.4761 54.4288 47.2289C55.3064 48.3987 55.235 49.4586 55.0197 50.1419C54.2603 52.5539 50.847 53.7842 45.3405 55.5916C43.087 56.3309 40.7575 57.0958 39.1369 57.9056C34.7966 60.0758 31.507 58.8666 29.7766 57.4549L10.5419 65.8177C10.443 68.335 9.9318 74.3399 7.33475 76.9351C5.76461 78.5052 4.41158 79.315 3.40757 79.7291C3.91782 82.371 4.91267 85.0386 5.78843 85.329C7.50147 85.9015 10.4219 85.5965 11.8693 85.362L19.7988 77.4325C20.0424 77.187 20.3612 77.0294 20.7047 76.979L27.1484 76.0593C27.4397 76.0181 27.7346 76.0566 28.0049 76.1738L38.6597 80.7386V78.5638C38.6597 77.7806 39.2258 77.1128 39.998 76.9855L45.5219 76.0657C46.0203 75.9842 46.5387 76.1418 46.9033 76.4999C47.2679 76.8572 47.442 77.3665 47.3687 77.8713C47.3678 77.896 47.2478 79.1236 48.2701 80.2622C49.5764 81.7179 52.2184 82.4874 55.9101 82.4874C65.4647 82.4874 66.2992 78.3037 67.1823 73.8727L67.2263 73.6491C67.3811 72.8751 67.852 70.5208 69.8096 69.7733C72.0842 68.9021 74.6455 70.8258 77.1217 72.6827C79.9413 74.797 85.3791 77.0267 87.5584 77.4096C87.9267 75.0956 89.1001 71.5046 89.3695 70.6948C89.4611 70.4209 89.626 70.1754 89.8449 69.9876C89.9044 69.9363 95.825 64.7459 96.6623 57.2176C97.2696 51.7478 95.7544 46.2642 94.4188 41.4274C93.8344 39.3149 93.2838 37.3198 92.9916 35.5646C92.572 33.0491 92.9898 31.4469 93.3754 30.441C93.3388 30.4318 93.3012 30.4227 93.2618 30.4117C91.5662 29.9921 84.6792 31.6401 76.1405 34.5276C75.3023 34.8125 74.3945 34.3627 74.1115 33.5245C73.8284 32.6863 74.2773 31.7785 75.1145 31.4954C82.0336 29.1549 90.9295 26.5248 94.0396 27.3062C95.2744 27.6149 96.2555 27.9255 96.7182 28.8654C97.1551 29.7521 96.8098 30.5445 96.5588 31.1235C96.2354 31.8673 95.792 32.8878 96.1502 35.0397C96.4149 36.63 96.9453 38.5464 97.506 40.5755C98.8489 45.4379 100.521 51.4904 99.8447 57.5713C98.9818 65.3422 93.7061 70.7635 92.2789 72.1037C91.5616 74.3069 90.6492 77.5397 90.6492 78.5657C90.6492 79.3489 90.226 80.0286 89.516 80.3841C86.7971 81.7408 77.7308 77.1412 75.2016 75.2449C74.2241 74.5112 71.6179 72.5609 70.9519 72.7651C70.9538 72.7651 70.6258 72.9905 70.3675 74.2785L70.3235 74.4993C69.3827 79.2225 68.0929 85.6899 55.911 85.6899C51.1511 85.6899 47.7525 84.5531 45.8077 82.3115C44.9732 81.3487 44.5527 80.3511 44.3484 79.5083L41.8631 79.9224V83.168C41.8631 83.7066 41.5929 84.2077 41.1431 84.5055C40.6942 84.8004 40.1272 84.8536 39.6316 84.6392L27.1575 79.2949L21.6868 80.0763L13.7784 87.9819C13.5539 88.2054 13.2699 88.3575 12.9603 88.4198C12.6333 88.4858 10.6482 88.8641 8.4551 88.8641ZM61.2196 32.7522C61.2206 32.7522 61.2224 32.7541 61.2233 32.7559C61.2224 32.7541 61.2206 32.7522 61.2196 32.7522Z" fill="#ED8400"/>
<path d="M5.28197 59.9173C4.55461 59.9173 3.90878 59.4236 3.72924 58.7035L2.80859 55.0209C2.69958 54.5831 2.77927 54.1204 3.02936 53.7449L4.14238 52.0767L3.22998 51.1634C2.69042 50.6238 2.60614 49.7783 3.02936 49.1434L4.40346 47.0814L2.87546 43.2605C2.77103 43.0012 2.73805 42.7182 2.77744 42.4397L4.61874 29.5543C4.70851 28.9222 5.16563 28.4046 5.78214 28.2361C6.39499 28.073 7.05273 28.2828 7.45305 28.7802C10.401 32.4628 14.0634 36.7472 15.0335 37.4801C15.4851 37.6386 15.9019 37.9729 16.087 38.3806C16.5798 39.4689 15.8561 40.2961 15.0894 41.17C14.9025 41.3844 14.5874 41.7425 14.3547 42.0485C14.9071 42.5157 15.6949 43.146 16.4158 43.7249C17.6315 44.6969 18.7802 45.6148 19.3015 46.1351C20.5556 47.391 20.1781 49.4925 19.9024 51.026C19.8401 51.3732 19.7751 51.6727 19.7714 51.8733C19.7714 52.2453 19.7714 53.2364 16.7814 58.2189C16.5184 58.6568 16.0622 58.9426 15.5529 58.9893L5.42762 59.9109C5.37907 59.9155 5.3296 59.9173 5.28197 59.9173ZM6.08719 54.9312L6.50309 56.5975L14.4472 55.8756C15.4274 54.1919 16.4122 52.3295 16.5716 51.7561C16.5853 51.3805 16.6632 50.949 16.7511 50.458C16.8446 49.9395 17.0571 48.7541 16.9554 48.3208C16.4965 47.8875 15.3944 47.0081 14.4161 46.2249C13.1931 45.2456 12.0389 44.3222 11.5149 43.7982C10.0703 42.3554 11.4141 40.5352 12.3952 39.3873C11.3756 38.4337 9.80734 36.7188 7.26892 33.6372L6.00749 42.469L7.68939 46.6746C7.88543 47.1647 7.82772 47.7171 7.53458 48.1568L6.42156 49.8268L7.33488 50.7392C7.87444 51.2788 7.95872 52.1252 7.53458 52.7592L6.08719 54.9312ZM16.5688 51.8706V51.8715V51.8706ZM14.4912 37.3839C14.5388 37.3839 14.5874 37.3866 14.6359 37.3921C14.5901 37.3866 14.5425 37.3839 14.4912 37.3839ZM14.4875 37.3839H14.4903C14.4894 37.3839 14.4884 37.3839 14.4875 37.3839Z" fill="#ED8400"/>
<path d="M69.5826 41.7215C69.1118 41.7215 68.6648 41.5135 68.3606 41.1563C66.883 39.4093 53.9243 23.871 53.9243 15.7546C53.9243 7.12163 60.9487 0.097229 69.5826 0.097229C78.2166 0.097229 85.2401 7.12163 85.2401 15.7546C85.2401 23.871 72.2814 39.4093 70.8038 41.1563C70.4996 41.5145 70.0526 41.7215 69.5826 41.7215ZM69.5826 3.29888C62.714 3.29888 57.1269 8.88689 57.1269 15.7546C57.1269 21.0843 65.2286 32.2164 69.5826 37.6056C73.9358 32.2164 82.0384 21.0852 82.0384 15.7546C82.0384 8.88689 76.4504 3.29888 69.5826 3.29888ZM69.5826 22.8239C65.169 22.8239 61.5771 19.232 61.5771 14.8184C61.5771 10.4057 65.169 6.81383 69.5826 6.81383C73.9953 6.81383 77.5872 10.4057 77.5872 14.8184C77.5872 19.232 73.9953 22.8239 69.5826 22.8239ZM69.5826 10.0164C66.9343 10.0164 64.7797 12.1701 64.7797 14.8184C64.7797 17.4668 66.9343 19.6214 69.5826 19.6214C72.231 19.6214 74.3847 17.4668 74.3847 14.8184C74.3847 12.1701 72.231 10.0164 69.5826 10.0164Z" fill="#ED8400"/>
</g>
<defs>
<clipPath id="clip0_27_929">
<rect width="100" height="100" fill="white"/>
</clipPath>
</defs>
</svg>
