<svg width="100" height="100" viewBox="0 0 100 100" fill="none" xmlns="http://www.w3.org/2000/svg">
<path d="M49.8047 31.3691C52.7578 31.3691 55.5879 29.8809 57.7734 27.1797C59.7695 24.7129 60.9141 21.6016 60.9141 18.6406C60.9141 12.6758 56.1387 8.17773 49.8047 8.17773C43.4707 8.17773 38.6953 12.6699 38.6953 18.6406C38.6953 21.6016 39.8398 24.7129 41.8359 27.1797C44.0215 29.8828 46.8516 31.3691 49.8047 31.3691ZM49.8047 11.4004C54.375 11.4004 57.6914 14.4453 57.6914 18.6406C57.6914 23.9141 53.377 28.1465 49.8047 28.1465C45.4355 28.1465 41.918 22.9453 41.918 18.6406C41.918 14.4531 45.2344 11.4004 49.8047 11.4004Z" fill="#ED8400"/>
<path d="M36.6583 46.834L35.5274 62.9649C35.5125 63.176 35.5394 63.3879 35.6064 63.5886C35.6734 63.7894 35.7794 63.9749 35.9181 64.1347C36.0569 64.2945 36.2257 64.4254 36.415 64.5199C36.6044 64.6144 36.8105 64.6707 37.0216 64.6856H37.1349C37.5425 64.6851 37.9348 64.5304 38.233 64.2525C38.5312 63.9746 38.7132 63.5941 38.7423 63.1875L39.8731 47.0703C39.888 46.8592 39.8612 46.6473 39.7941 46.4466C39.7271 46.2459 39.6212 46.0603 39.4824 45.9005C39.3437 45.7408 39.1748 45.6099 38.9855 45.5153C38.7962 45.4208 38.5901 45.3645 38.379 45.3496C38.1679 45.3348 37.956 45.3616 37.7552 45.4286C37.5545 45.4957 37.369 45.6016 37.2092 45.7403C37.0494 45.8791 36.9185 46.0479 36.824 46.2373C36.7295 46.4266 36.6732 46.6327 36.6583 46.8438V46.834Z" fill="#ED8400"/>
<path d="M71.6581 64.6836C72.0953 64.6449 72.4993 64.4344 72.7816 64.0983C73.0639 63.7622 73.2014 63.3279 73.164 62.8906C73.164 62.8906 71.4609 50.6777 71.2109 46.5801C70.748 39.2227 66.2538 33.3203 59.2324 32.2461C56.7636 31.8672 52.2792 31.582 49.9355 31.5801C46.7361 31.6355 43.5417 31.8565 40.3652 32.2422C37.0719 32.693 34.0558 34.3282 31.8808 36.8418C29.5956 39.4805 28.5742 42.8535 28.3652 46.5879C28.1308 50.6895 26.5781 62.9082 26.5781 62.9082C26.5519 63.12 26.5681 63.335 26.6257 63.5405C26.6833 63.746 26.7811 63.938 26.9136 64.1054C27.046 64.2728 27.2103 64.4122 27.3971 64.5156C27.5839 64.6189 27.7893 64.6841 28.0014 64.7074C28.2136 64.7307 28.4283 64.7116 28.633 64.6512C28.8377 64.5908 29.0284 64.4904 29.194 64.3557C29.3596 64.221 29.4968 64.0548 29.5976 63.8667C29.6984 63.6785 29.7608 63.4722 29.7812 63.2598C29.7812 63.2598 31.3574 50.9082 31.582 46.7656C31.9023 40.8945 35.3769 36.1758 40.8046 35.4375C43.834 35.0696 46.8804 34.8583 49.9316 34.8047C52.1152 34.8047 56.4492 35.082 58.7421 35.4336C61.2632 35.8152 63.5682 37.0756 65.2499 38.9922C67.039 41.0469 67.8144 43.8066 67.9843 46.7754C68.2324 50.9238 69.9628 63.2773 69.9628 63.2773C70.0255 63.6781 70.2323 64.0421 70.5445 64.3011C70.8567 64.5601 71.2527 64.6961 71.6581 64.6836Z" fill="#ED8400"/>
<path d="M61.1834 45.3398C60.9713 45.3544 60.7641 45.4109 60.5739 45.5059C60.3836 45.6009 60.2141 45.7327 60.075 45.8935C59.9359 46.0544 59.8301 46.2412 59.7635 46.4432C59.697 46.6451 59.6711 46.8583 59.6873 47.0703L60.8201 63.1992C60.8483 63.606 61.0296 63.9869 61.3276 64.2653C61.6255 64.5437 62.0179 64.6987 62.4256 64.6992H62.5408C62.967 64.6687 63.3636 64.4704 63.6437 64.1478C63.9238 63.8252 64.0645 63.4047 64.035 62.9785L62.9022 46.8477C62.8885 46.6357 62.8332 46.4286 62.7394 46.238C62.6456 46.0475 62.5151 45.8774 62.3555 45.7373C62.1958 45.5973 62.0101 45.4901 61.809 45.4219C61.6079 45.3537 61.3953 45.3258 61.1834 45.3398Z" fill="#ED8400"/>
<path d="M60.0859 79.2734L67.8359 71.7187C68.0511 71.5089 68.2033 71.243 68.2753 70.9512C68.3473 70.6594 68.3363 70.3533 68.2434 70.0674C68.1506 69.7815 67.9796 69.5273 67.7499 69.3335C67.5201 69.1397 67.2408 69.014 66.9433 68.9707L56.2344 67.4082L51.4453 57.7109C51.3123 57.4411 51.1065 57.2139 50.851 57.055C50.5956 56.8962 50.3008 56.812 50 56.812C49.6992 56.812 49.4044 56.8962 49.1489 57.055C48.8935 57.2139 48.6877 57.4411 48.5547 57.7109L43.7656 67.414L33.0566 68.9765C32.7592 69.0199 32.4798 69.1456 32.2501 69.3394C32.0204 69.5332 31.8494 69.7874 31.7565 70.0733C31.6637 70.3591 31.6527 70.6653 31.7247 70.9571C31.7967 71.2489 31.9489 71.5147 32.164 71.7246L39.9141 79.2793L38.0859 89.9375C38.0342 90.2347 38.0669 90.5404 38.1803 90.8199C38.2938 91.0994 38.4834 91.3414 38.7276 91.5184C38.9718 91.6955 39.2608 91.8004 39.5617 91.8214C39.8626 91.8423 40.1633 91.7783 40.4297 91.6367L50 86.6015L59.5703 91.6367C59.8018 91.7579 60.059 91.8215 60.3203 91.8223C60.5549 91.8219 60.7867 91.7704 60.9993 91.6713C61.212 91.5722 61.4005 91.4279 61.5517 91.2484C61.7029 91.069 61.8131 90.8587 61.8747 90.6323C61.9362 90.4059 61.9477 90.1688 61.9082 89.9375L60.0859 79.2734ZM49.25 83.3555C47.3789 84.3086 41.8125 87.2617 41.8125 87.2617L43.2324 78.9785C43.2766 78.7211 43.2575 78.4569 43.1769 78.2085C43.0962 77.9601 42.9564 77.7351 42.7695 77.5527L36.7519 71.6933L45.0683 70.4844C45.3267 70.4466 45.572 70.3468 45.7833 70.1934C45.9946 70.0399 46.1654 69.8375 46.2812 69.6035L49.9922 62.0664L53.7031 69.6035C53.8189 69.8375 53.9898 70.0399 54.201 70.1934C54.4123 70.3468 54.6576 70.4466 54.916 70.4844L63.2324 71.6933L57.2148 77.5527C57.0279 77.7351 56.8881 77.9601 56.8075 78.2085C56.7269 78.4569 56.7078 78.7211 56.7519 78.9785L58.1719 87.2617C58.1719 87.2617 52.6055 84.3047 50.7344 83.3555C50.5063 83.2324 50.2513 83.1679 49.9922 83.1679C49.7331 83.1679 49.478 83.2324 49.25 83.3555Z" fill="#ED8400"/>
<path d="M94.2637 73.8691L86.4336 72.7305L82.9316 65.6367C82.799 65.3668 82.5933 65.1395 82.338 64.9805C82.0828 64.8215 81.788 64.7372 81.4873 64.7372C81.1865 64.7372 80.8918 64.8215 80.6365 64.9805C80.3812 65.1395 80.1756 65.3668 80.043 65.6367L76.541 72.7305L68.7109 73.8691C68.4135 73.9125 68.1341 74.0382 67.9044 74.232C67.6746 74.4258 67.5037 74.68 67.4108 74.9658C67.318 75.2517 67.3069 75.5578 67.379 75.8496C67.451 76.1415 67.6032 76.4073 67.8183 76.6172L73.4824 82.1406L72.1445 89.9375C72.0928 90.2346 72.1255 90.5404 72.2389 90.8199C72.3523 91.0994 72.542 91.3414 72.7862 91.5184C73.0304 91.6955 73.3194 91.8004 73.6203 91.8214C73.9212 91.8423 74.2219 91.7783 74.4883 91.6367L81.4902 87.9551L88.4941 91.6367C88.7256 91.7579 88.9829 91.8215 89.2441 91.8223C89.4788 91.8219 89.7105 91.7704 89.9232 91.6713C90.1359 91.5722 90.3244 91.4279 90.4755 91.2484C90.6267 91.069 90.7369 90.8587 90.7985 90.6323C90.8601 90.4059 90.8715 90.1688 90.832 89.9375L89.4941 82.1406L95.1582 76.6172C95.3734 76.4073 95.5256 76.1415 95.5976 75.8496C95.6696 75.5578 95.6585 75.2517 95.5657 74.9658C95.4728 74.68 95.3019 74.4258 95.0721 74.232C94.8424 74.0382 94.563 73.9125 94.2656 73.8691H94.2637ZM80.7383 84.709C79.5098 85.3262 75.873 87.2656 75.873 87.2656L76.8027 81.8496C76.8469 81.5922 76.8278 81.328 76.7472 81.0796C76.6665 80.8312 76.5267 80.6062 76.3398 80.4238L72.4043 76.5879L77.8418 75.8066C78.1005 75.7692 78.3462 75.6692 78.5575 75.5154C78.7689 75.3616 78.9395 75.1585 79.0547 74.9238L81.4863 69.998L83.918 74.9238C84.0338 75.1583 84.2049 75.3612 84.4165 75.515C84.6282 75.6688 84.874 75.7688 85.1328 75.8066L90.5683 76.5879L86.6348 80.4238C86.4476 80.606 86.3076 80.831 86.2269 81.0794C86.1463 81.3279 86.1274 81.5922 86.1719 81.8496L87.1094 87.2656C87.1094 87.2656 83.4746 85.3262 82.2461 84.709C82.0144 84.5842 81.7553 84.5189 81.4922 84.5189C81.229 84.5189 80.97 84.5842 80.7383 84.709Z" fill="#ED8400"/>
<path d="M31.2891 73.8691L23.459 72.7305L19.957 65.6367C19.8244 65.3668 19.6187 65.1395 19.3634 64.9805C19.1082 64.8215 18.8134 64.7372 18.5127 64.7372C18.2119 64.7372 17.9172 64.8215 17.6619 64.9805C17.4066 65.1395 17.201 65.3668 17.0683 65.6367L13.5664 72.7305L5.73632 73.8691C5.43889 73.9125 5.15952 74.0382 4.92978 74.232C4.70004 74.4258 4.52908 74.68 4.43623 74.9658C4.34338 75.2517 4.33234 75.5578 4.40435 75.8496C4.47636 76.1415 4.62856 76.4073 4.84374 76.6172L10.5078 82.1406L9.17968 89.9375C9.12793 90.2346 9.16064 90.5404 9.27407 90.8199C9.38751 91.0994 9.57711 91.3414 9.82132 91.5184C10.0655 91.6955 10.3545 91.8004 10.6554 91.8214C10.9563 91.8423 11.2571 91.7783 11.5234 91.6367L18.5273 87.9551L25.5293 91.6367C25.7608 91.7579 26.018 91.8215 26.2793 91.8223C26.5139 91.8219 26.7457 91.7704 26.9583 91.6713C27.171 91.5722 27.3595 91.4279 27.5107 91.2484C27.6619 91.069 27.7721 90.8587 27.8337 90.6323C27.8952 90.4059 27.9067 90.1688 27.8672 89.9375L26.5293 82.1406L32.1933 76.6172C32.4085 76.4073 32.5607 76.1415 32.6327 75.8496C32.7047 75.5578 32.6937 75.2517 32.6009 74.9658C32.508 74.68 32.337 74.4258 32.1073 74.232C31.8776 74.0382 31.5982 73.9125 31.3008 73.8691H31.2891ZM17.7734 84.709L12.9004 87.2656L13.8281 81.8496C13.8726 81.5922 13.8537 81.3279 13.773 81.0794C13.6924 80.831 13.5524 80.606 13.3652 80.4238L9.43163 76.5879L14.8672 75.8066C15.126 75.7688 15.3718 75.6688 15.5834 75.515C15.795 75.3612 15.9661 75.1583 16.082 74.9238L18.5137 69.998L20.9453 74.9238C21.0604 75.1585 21.2311 75.3616 21.4424 75.5154C21.6538 75.6692 21.8995 75.7692 22.1582 75.8066L27.5957 76.5879L23.6601 80.4238C23.4732 80.6062 23.3334 80.8312 23.2528 81.0796C23.1722 81.328 23.1531 81.5922 23.1973 81.8496L24.1269 87.2656L19.2617 84.709C19.0377 84.5719 18.7802 84.4994 18.5176 84.4994C18.255 84.4994 17.9974 84.5719 17.7734 84.709Z" fill="#ED8400"/>
</svg>
