<svg width="100" height="100" viewBox="0 0 100 100" fill="none" xmlns="http://www.w3.org/2000/svg">
<g clip-path="url(#clip0_27_924)">
<path d="M98.3331 50H95.1666L53.667 20.5579C56.7383 18.5291 57.5836 14.3927 55.5536 11.3214C54.6454 9.94629 53.2605 8.95691 51.6663 8.5437V3.33313H61.6669C62.5867 3.33313 63.3331 2.58728 63.3331 1.66687C63.3331 0.74585 62.5867 0 61.6669 0H38.3331C37.4133 0 36.6669 0.74585 36.6669 1.66687C36.6669 2.58728 37.4133 3.33313 38.3331 3.33313H48.3331V10C48.3331 10.9204 49.0796 11.6669 50 11.6669C51.8408 11.6669 53.3331 13.1592 53.3331 15C53.3331 16.8408 51.8408 18.3337 50 18.3337C48.1592 18.3337 46.6669 16.8408 46.6669 15C46.6669 14.0796 45.9204 13.3331 45 13.3331C44.0796 13.3331 43.3337 14.0796 43.3337 15C43.338 17.2369 44.4647 19.3231 46.333 20.5536L4.62341 50H1.66687C0.74585 50 0 50.7458 0 51.6669V98.3331C0 99.2542 0.74585 100 1.66687 100H98.3331C99.2542 100 100 99.2542 100 98.3331V51.6669C100 50.7458 99.2542 50 98.3331 50ZM50 22.041L89.3994 50H10.4034L50 22.041ZM96.6669 96.6669H3.33313V53.3331H96.6669V96.6669Z" fill="#ED8400"/>
<path d="M56.6663 93.3337C57.5873 93.3337 58.3337 92.5873 58.3337 91.6663V58.3337C58.3337 57.4127 57.5873 56.6663 56.6663 56.6663C55.7465 56.6663 55 57.4127 55 58.3337V91.6663C55 92.5873 55.7465 93.3337 56.6663 93.3337Z" fill="#ED8400"/>
<path d="M70.0002 93.3337C70.9207 93.3337 71.6671 92.5873 71.6671 91.6663V58.3337C71.6671 57.4127 70.9207 56.6663 70.0002 56.6663C69.0798 56.6663 68.334 57.4127 68.334 58.3337V91.6663C68.334 92.5873 69.0798 93.3337 70.0002 93.3337Z" fill="#ED8400"/>
<path d="M83.3335 93.3337C84.2533 93.3337 84.9998 92.5873 84.9998 91.6663V58.3337C84.9998 57.4127 84.2533 56.6663 83.3335 56.6663C82.4125 56.6663 81.666 57.4127 81.666 58.3337V91.6663C81.666 92.5873 82.4125 93.3337 83.3335 93.3337Z" fill="#ED8400"/>
<path d="M16.6663 93.3337C17.5873 93.3337 18.3337 92.5873 18.3337 91.6663V58.3337C18.3337 57.4127 17.5873 56.6663 16.6663 56.6663C15.7465 56.6663 15 57.4127 15 58.3337V91.6663C15 92.5873 15.7465 93.3337 16.6663 93.3337Z" fill="#ED8400"/>
<path d="M29.9999 93.3337C30.9203 93.3337 31.6661 92.5873 31.6661 91.6663V58.3337C31.6661 57.4127 30.9203 56.6663 29.9999 56.6663C29.0795 56.6663 28.333 57.4127 28.333 58.3337V91.6663C28.333 92.5873 29.0795 93.3337 29.9999 93.3337Z" fill="#ED8400"/>
<path d="M43.3335 93.3337C44.2533 93.3337 44.9998 92.5873 44.9998 91.6663V58.3337C44.9998 57.4127 44.2533 56.6663 43.3335 56.6663C42.4125 56.6663 41.666 57.4127 41.666 58.3337V91.6663C41.666 92.5873 42.4125 93.3337 43.3335 93.3337Z" fill="#ED8400"/>
</g>
<defs>
<clipPath id="clip0_27_924">
<rect width="100" height="100" fill="white"/>
</clipPath>
</defs>
</svg>
