<svg width="100" height="100" viewBox="0 0 100 100" fill="none" xmlns="http://www.w3.org/2000/svg">
<g clip-path="url(#clip0_201_750)">
<path d="M98 36H90V4C89.998 1.79199 88.208 0.00195312 86 0H14C11.792 0.00195312 10.002 1.79199 10 4V36H2C0.895508 36 0 36.8955 0 38V54C0 55.1045 0.895508 56 2 56H10V74C10 74.5371 10.2178 75.0518 10.6035 75.4258C10.2109 76.2275 10.0049 77.1074 10 78V82C10.0039 85.3125 12.6875 87.9961 16 88V94C16.0039 97.3125 18.6875 99.9961 22 100H30C33.3125 99.9961 35.9961 97.3125 36 94V88H64V94C64.0039 97.3125 66.6875 99.9961 70 100H78C81.3125 99.9961 83.9961 97.3125 84 94V88C87.3125 87.9961 89.9961 85.3125 90 82V78C89.9951 77.1074 89.7891 76.2275 89.3975 75.4258C89.7822 75.0518 90 74.5371 90 74V56H98C99.1045 56 100 55.1045 100 54V38C100 36.8955 99.1045 36 98 36ZM84 72V59.0703L86 57.7373V72H84ZM28 72V66C28 65.4697 27.7891 64.9609 27.4141 64.5859L23.4141 60.5859C23.0391 60.2109 22.5303 60 22 60H20V26C20.0039 22.6875 22.6875 20.0039 26 20H74C77.3125 20.0039 79.9961 22.6875 80 26V60H78C77.4697 60 76.9609 60.2109 76.5859 60.5859L72.5859 64.5859C72.2109 64.9609 72 65.4697 72 66V72H28ZM14 72V57.7373L16 59.0703V72H14ZM20 64H21.1719L24 66.8281V72H20V64ZM76 66.8281L78.8281 64H80V72H76V66.8281ZM14 4H86V52.9297L84 54.2627V26C83.9932 20.4795 79.5205 16.0068 74 16H26C20.4795 16.0068 16.0068 20.4795 16 26V54.2627L14 52.9297V4ZM4 52V40H10V52H4ZM32 94C31.999 95.1035 31.1035 95.999 30 96H22C20.8965 95.999 20.001 95.1035 20 94V88H32V94ZM80 94C79.999 95.1035 79.1035 95.999 78 96H70C68.8965 95.999 68.001 95.1035 68 94V88H80V94ZM86 82C85.999 83.1035 85.1035 83.999 84 84H16C14.8965 83.999 14.001 83.1035 14 82V78C14.001 76.8965 14.8965 76.001 16 76H84C85.1035 76.001 85.999 76.8965 86 78V82ZM96 52H90V40H96V52Z" fill="#ED8400"/>
<path d="M33.2862 56H66.7139C66.9864 56 67.255 55.9443 67.505 55.8369L76.7911 51.8369C77.5245 51.5205 78.0001 50.7988 78.0001 50V28C78.0362 25.8311 76.3116 24.042 74.1426 24H25.8575C23.6885 24.042 21.9639 25.8311 22.0001 28V50C22.0001 50.7988 22.4757 51.5205 23.2091 51.8369L32.4952 55.8369C32.7452 55.9443 33.0137 56 33.2862 56ZM25.8575 28H74.0001V48.6836L66.3018 52H60.1602L61.3028 50H67.0001C68.1046 50 69.0001 49.1045 69.0001 48C69.0001 46.8955 68.1046 46 67.0001 46H55.0001C53.8956 46 53.0001 46.8955 53.0001 48C53.0001 49.1045 53.8956 50 55.0001 50H56.6964L55.5538 52H40.1602L41.3028 50H47.0001C48.1046 50 49.0001 49.1045 49.0001 48C49.0001 46.8955 48.1046 46 47.0001 46H35.0001C33.8956 46 33.0001 46.8955 33.0001 48C33.0001 49.1045 33.8956 50 35.0001 50H36.6964L35.5538 52H33.6983L25.9913 48.6797L25.8575 28Z" fill="#ED8400"/>
<path d="M44 78H36C34.8955 78 34 78.8955 34 80C34 81.1045 34.8955 82 36 82H44C45.1045 82 46 81.1045 46 80C46 78.8955 45.1045 78 44 78Z" fill="#ED8400"/>
<path d="M64 78H56C54.8955 78 54 78.8955 54 80C54 81.1045 54.8955 82 56 82H64C65.1045 82 66 81.1045 66 80C66 78.8955 65.1045 78 64 78Z" fill="#ED8400"/>
<path d="M66 66H34C32.8955 66 32 66.8955 32 68C32 69.1045 32.8955 70 34 70H66C67.1045 70 68 69.1045 68 68C68 66.8955 67.1045 66 66 66Z" fill="#ED8400"/>
<path d="M66 60H34C32.8955 60 32 60.8955 32 62C32 63.1045 32.8955 64 34 64H66C67.1045 64 68 63.1045 68 62C68 60.8955 67.1045 60 66 60Z" fill="#ED8400"/>
</g>
<defs>
<clipPath id="clip0_201_750">
<rect width="100" height="100" fill="white"/>
</clipPath>
</defs>
</svg>
